<?xml version="1.0" encoding="UTF-8" standalone="no"?>
<!DOCTYPE svg PUBLIC "-//W3C//DTD SVG 1.1//EN"
 "http://www.w3.org/Graphics/SVG/1.1/DTD/svg11.dtd">
<!-- Generated by graphviz version 9.0.0 (0)
 -->
<!-- Pages: 1 -->
<svg width="1064pt" height="1052pt"
 viewBox="0.00 0.00 1064.26 1052.43" xmlns="http://www.w3.org/2000/svg" xmlns:xlink="http://www.w3.org/1999/xlink">
<g id="graph0" class="graph" transform="scale(1 1) rotate(0) translate(72 980.43)">
<polygon fill="white" stroke="none" points="-72,72 -72,-980.43 992.26,-980.43 992.26,72 -72,72"/>
<g id="clust4" class="cluster">
<title>cluster_observability</title>
</g>
<g id="clust5" class="cluster">
<title>cluster_networking</title>
</g>
<g id="clust1" class="cluster">
<title>cluster_cluster_management</title>
</g>
<g id="clust2" class="cluster">
<title>cluster_cloud_integration</title>
</g>
<g id="clust3" class="cluster">
<title>cluster_continuous_deployment</title>
</g>
<g id="clust6" class="cluster">
<title>cluster_security__compliance</title>
</g>
<g id="clust7" class="cluster">
<title>cluster_developer_enablement</title>
</g>
<!-- Kubernetes -->
<g id="Kubernetes" class="node">
<title>Kubernetes</title>
<ellipse fill="none" stroke="black" cx="456.83" cy="-462.28" rx="94.4" ry="62.58"/>
<text text-anchor="middle" x="456.83" y="-457.23" font-family="Times,serif" font-size="14.00">Kubernetes</text>
</g>
<!-- label_cluster_management -->
<g id="label_cluster_management" class="node">
<title>label_cluster_management</title>
<polygon fill="none" stroke="darkgreen" points="694.94,-434.89 574.69,-434.89 574.69,-381.89 694.94,-381.89 694.94,-434.89"/>
<text text-anchor="middle" x="634.82" y="-411.89" font-family="Times,serif" font-size="20.00">Cluster</text>
<text text-anchor="middle" x="634.82" y="-389.39" font-family="Times,serif" font-size="20.00">Management</text>
</g>
<!-- Kubernetes&#45;&gt;label_cluster_management -->
<g id="edge1" class="edge">
<title>Kubernetes&#45;&gt;label_cluster_management</title>
<path fill="none" stroke="black" d="M542.96,-436.21C553.52,-433.01 564.13,-429.8 574.2,-426.75"/>
<polygon fill="black" stroke="black" points="574.2,-426.75 574.2,-426.75 574.2,-426.75 574.2,-426.75"/>
</g>
<!-- label_cloud_integration -->
<g id="label_cloud_integration" class="node">
<title>label_cloud_integration</title>
<polygon fill="none" stroke="darkblue" points="549.09,-681.71 446.84,-681.71 446.84,-628.71 549.09,-628.71 549.09,-681.71"/>
<text text-anchor="middle" x="497.97" y="-658.71" font-family="Times,serif" font-size="20.00">Cloud</text>
<text text-anchor="middle" x="497.97" y="-636.21" font-family="Times,serif" font-size="20.00">Integration</text>
</g>
<!-- Kubernetes&#45;&gt;label_cloud_integration -->
<g id="edge3" class="edge">
<title>Kubernetes&#45;&gt;label_cloud_integration</title>
<path fill="none" stroke="black" d="M470.13,-524.66C477.6,-559.67 486.53,-601.55 492.22,-628.27"/>
<polygon fill="black" stroke="black" points="492.22,-628.27 492.22,-628.27 492.22,-628.27 492.22,-628.27"/>
</g>
<!-- label_continuous_deployment -->
<g id="label_continuous_deployment" class="node">
<title>label_continuous_deployment</title>
<polygon fill="none" stroke="#cd2990" points="318.77,-398.88 205.27,-398.88 205.27,-345.88 318.77,-345.88 318.77,-398.88"/>
<text text-anchor="middle" x="262.02" y="-375.88" font-family="Times,serif" font-size="20.00">Continuous</text>
<text text-anchor="middle" x="262.02" y="-353.38" font-family="Times,serif" font-size="20.00">Deployment</text>
</g>
<!-- Kubernetes&#45;&gt;label_continuous_deployment -->
<g id="edge5" class="edge">
<title>Kubernetes&#45;&gt;label_continuous_deployment</title>
<path fill="none" stroke="black" d="M379,-426.36C358.97,-417.12 337.78,-407.34 319.03,-398.69"/>
<polygon fill="black" stroke="black" points="319.03,-398.69 319.03,-398.69 319.03,-398.69 319.03,-398.69"/>
</g>
<!-- label_observability -->
<g id="label_observability" class="node">
<title>label_observability</title>
<polygon fill="none" stroke="red" points="556.49,-258.61 433.99,-258.61 433.99,-222.61 556.49,-222.61 556.49,-258.61"/>
<text text-anchor="middle" x="495.24" y="-232.86" font-family="Times,serif" font-size="20.00">Observability</text>
</g>
<!-- Kubernetes&#45;&gt;label_observability -->
<g id="edge8" class="edge">
<title>Kubernetes&#45;&gt;label_observability</title>
<path fill="none" stroke="black" d="M467.68,-399.65C475.94,-352.02 486.74,-289.65 492.03,-259.09"/>
<polygon fill="black" stroke="black" points="492.03,-259.09 492.03,-259.09 492.03,-259.09 492.03,-259.09"/>
</g>
<!-- label_networking -->
<g id="label_networking" class="node">
<title>label_networking</title>
<polygon fill="none" stroke="burlywood" points="702.06,-594.18 592.31,-594.18 592.31,-558.18 702.06,-558.18 702.06,-594.18"/>
<text text-anchor="middle" x="647.18" y="-568.43" font-family="Times,serif" font-size="20.00">Networking</text>
</g>
<!-- Kubernetes&#45;&gt;label_networking -->
<g id="edge13" class="edge">
<title>Kubernetes&#45;&gt;label_networking</title>
<path fill="none" stroke="black" d="M527.17,-504.37C557.88,-522.75 592.31,-543.34 616.38,-557.75"/>
<polygon fill="black" stroke="black" points="616.38,-557.75 616.38,-557.75 616.38,-557.75 616.38,-557.75"/>
</g>
<!-- label_security__compliance -->
<g id="label_security__compliance" class="node">
<title>label_security__compliance</title>
<polygon fill="none" stroke="lime" points="427.75,-665.83 294.75,-665.83 294.75,-612.83 427.75,-612.83 427.75,-665.83"/>
<text text-anchor="middle" x="361.25" y="-642.83" font-family="Times,serif" font-size="20.00">Security</text>
<text text-anchor="middle" x="361.25" y="-620.33" font-family="Times,serif" font-size="20.00">&amp; Compliance</text>
</g>
<!-- Kubernetes&#45;&gt;label_security__compliance -->
<g id="edge16" class="edge">
<title>Kubernetes&#45;&gt;label_security__compliance</title>
<path fill="none" stroke="black" d="M425.01,-521.24C408.28,-552.22 388.61,-588.66 375.59,-612.78"/>
<polygon fill="black" stroke="black" points="375.59,-612.78 375.59,-612.78 375.59,-612.78 375.59,-612.78"/>
</g>
<!-- label_developer_enablement -->
<g id="label_developer_enablement" class="node">
<title>label_developer_enablement</title>
<polygon fill="none" stroke="aqua" points="331.01,-558.81 220.51,-558.81 220.51,-505.81 331.01,-505.81 331.01,-558.81"/>
<text text-anchor="middle" x="275.76" y="-535.81" font-family="Times,serif" font-size="20.00">Developer</text>
<text text-anchor="middle" x="275.76" y="-513.31" font-family="Times,serif" font-size="20.00">Enablement</text>
</g>
<!-- Kubernetes&#45;&gt;label_developer_enablement -->
<g id="edge18" class="edge">
<title>Kubernetes&#45;&gt;label_developer_enablement</title>
<path fill="none" stroke="black" d="M375.04,-493.91C360.23,-499.64 345.11,-505.49 331.28,-510.84"/>
<polygon fill="black" stroke="black" points="331.28,-510.84 331.28,-510.84 331.28,-510.84 331.28,-510.84"/>
</g>
<!-- Rancher -->
<g id="Rancher" class="node">
<title>Rancher</title>
<ellipse fill="none" stroke="darkgreen" cx="843.26" cy="-358.77" rx="62.37" ry="42.21"/>
<text text-anchor="middle" x="843.26" y="-353.72" font-family="Times,serif" font-size="14.00">Rancher</text>
</g>
<!-- label_cluster_management&#45;&gt;Rancher -->
<g id="edge2" class="edge">
<title>label_cluster_management&#45;&gt;Rancher</title>
<path fill="none" stroke="darkgreen" d="M695.39,-393.97C719.68,-388.19 747.83,-381.49 773.02,-375.49"/>
<polygon fill="darkgreen" stroke="darkgreen" points="773.59,-378.95 782.5,-373.23 771.97,-372.14 773.59,-378.95"/>
</g>
<!-- AWS -->
<g id="AWS" class="node">
<title>AWS</title>
<ellipse fill="none" stroke="darkblue" cx="517.29" cy="-866.22" rx="51.76" ry="42.21"/>
<text text-anchor="middle" x="517.29" y="-861.17" font-family="Times,serif" font-size="14.00">AWS</text>
</g>
<!-- label_cloud_integration&#45;&gt;AWS -->
<g id="edge4" class="edge">
<title>label_cloud_integration&#45;&gt;AWS</title>
<path fill="none" stroke="darkblue" d="M500.41,-681.94C503.4,-714.58 508.53,-770.59 512.36,-812.31"/>
<polygon fill="darkblue" stroke="darkblue" points="508.86,-812.53 513.26,-822.17 515.83,-811.89 508.86,-812.53"/>
</g>
<!-- Helm -->
<g id="Helm" class="node">
<title>Helm</title>
<ellipse fill="none" stroke="#cd2990" cx="52.29" cy="-392.95" rx="52.29" ry="42.21"/>
<text text-anchor="middle" x="52.29" y="-387.9" font-family="Times,serif" font-size="14.00">Helm</text>
</g>
<!-- label_continuous_deployment&#45;&gt;Helm -->
<g id="edge6" class="edge">
<title>label_continuous_deployment&#45;&gt;Helm</title>
<path fill="none" stroke="#cd2990" d="M204.99,-377.97C177.48,-380.67 144.39,-383.91 116.05,-386.69"/>
<polygon fill="#cd2990" stroke="#cd2990" points="115.76,-383.21 106.14,-387.66 116.44,-390.17 115.76,-383.21"/>
</g>
<!-- Argo -->
<g id="Argo" class="node">
<title>Argo</title>
<ellipse fill="none" stroke="#cd2990" cx="121.98" cy="-224.46" rx="50.17" ry="42.21"/>
<text text-anchor="middle" x="121.98" y="-219.41" font-family="Times,serif" font-size="14.00">Argo</text>
</g>
<!-- label_continuous_deployment&#45;&gt;Argo -->
<g id="edge7" class="edge">
<title>label_continuous_deployment&#45;&gt;Argo</title>
<path fill="none" stroke="#cd2990" d="M236.66,-345.59C215.61,-323.36 185.31,-291.36 161.14,-265.83"/>
<polygon fill="#cd2990" stroke="#cd2990" points="163.99,-263.74 154.57,-258.89 158.91,-268.56 163.99,-263.74"/>
</g>
<!-- Grafana -->
<g id="Grafana" class="node">
<title>Grafana</title>
<ellipse fill="none" stroke="red" cx="596.77" cy="-65.52" rx="61.31" ry="42.21"/>
<text text-anchor="middle" x="596.77" y="-60.47" font-family="Times,serif" font-size="14.00">Grafana</text>
</g>
<!-- label_observability&#45;&gt;Grafana -->
<g id="edge9" class="edge">
<title>label_observability&#45;&gt;Grafana</title>
<path fill="none" stroke="red" d="M505.91,-222.2C520.57,-196.92 547.48,-150.53 568.22,-114.76"/>
<polygon fill="red" stroke="red" points="571.14,-116.69 573.13,-106.29 565.09,-113.18 571.14,-116.69"/>
</g>
<!-- Loki -->
<g id="Loki" class="node">
<title>Loki</title>
<ellipse fill="none" stroke="red" cx="456.56" cy="-42.21" rx="48.58" ry="42.21"/>
<text text-anchor="middle" x="456.56" y="-37.16" font-family="Times,serif" font-size="14.00">Loki</text>
</g>
<!-- label_observability&#45;&gt;Loki -->
<g id="edge10" class="edge">
<title>label_observability&#45;&gt;Loki</title>
<path fill="none" stroke="red" d="M491.67,-222.3C486.1,-193.74 475.14,-137.51 466.94,-95.44"/>
<polygon fill="red" stroke="red" points="470.39,-94.89 465.05,-85.74 463.52,-96.23 470.39,-94.89"/>
</g>
<!-- Tempo -->
<g id="Tempo" class="node">
<title>Tempo</title>
<ellipse fill="none" stroke="red" cx="341.85" cy="-108.42" rx="58.12" ry="42.21"/>
<text text-anchor="middle" x="341.85" y="-103.37" font-family="Times,serif" font-size="14.00">Tempo</text>
</g>
<!-- label_observability&#45;&gt;Tempo -->
<g id="edge11" class="edge">
<title>label_observability&#45;&gt;Tempo</title>
<path fill="none" stroke="red" d="M473.91,-222.23C451.83,-203.2 416.63,-172.87 388.13,-148.31"/>
<polygon fill="red" stroke="red" points="390.52,-145.75 380.66,-141.87 385.95,-151.05 390.52,-145.75"/>
</g>
<!-- Prometheus -->
<g id="Prometheus" class="node">
<title>Prometheus</title>
<ellipse fill="none" stroke="red" cx="687.78" cy="-163.41" rx="76.16" ry="42.21"/>
<text text-anchor="middle" x="687.78" y="-158.36" font-family="Times,serif" font-size="14.00">Prometheus</text>
</g>
<!-- label_observability&#45;&gt;Prometheus -->
<g id="edge12" class="edge">
<title>label_observability&#45;&gt;Prometheus</title>
<path fill="none" stroke="red" d="M541.36,-222.12C563.45,-213.26 590.44,-202.43 615.2,-192.51"/>
<polygon fill="red" stroke="red" points="616.27,-195.85 624.25,-188.88 613.67,-189.35 616.27,-195.85"/>
</g>
<!-- Istio -->
<g id="Istio" class="node">
<title>Istio</title>
<ellipse fill="none" stroke="burlywood" cx="750.57" cy="-755.63" rx="47.52" ry="42.21"/>
<text text-anchor="middle" x="750.57" y="-750.58" font-family="Times,serif" font-size="14.00">Istio</text>
</g>
<!-- label_networking&#45;&gt;Istio -->
<g id="edge14" class="edge">
<title>label_networking&#45;&gt;Istio</title>
<path fill="none" stroke="burlywood" d="M657.66,-594.37C672.89,-620.79 701.64,-670.69 723.14,-708.02"/>
<polygon fill="burlywood" stroke="burlywood" points="719.94,-709.47 727.96,-716.38 726,-705.97 719.94,-709.47"/>
</g>
<!-- CoreDNS -->
<g id="CoreDNS" class="node">
<title>CoreDNS</title>
<ellipse fill="none" stroke="burlywood" cx="852.06" cy="-591.96" rx="68.2" ry="42.21"/>
<text text-anchor="middle" x="852.06" y="-586.91" font-family="Times,serif" font-size="14.00">CoreDNS</text>
</g>
<!-- label_networking&#45;&gt;CoreDNS -->
<g id="edge15" class="edge">
<title>label_networking&#45;&gt;CoreDNS</title>
<path fill="none" stroke="burlywood" d="M702.35,-580.43C723.95,-582.09 749.13,-584.03 772.61,-585.84"/>
<polygon fill="burlywood" stroke="burlywood" points="772.23,-589.32 782.47,-586.6 772.77,-582.34 772.23,-589.32"/>
</g>
<!-- Vault -->
<g id="Vault" class="node">
<title>Vault</title>
<ellipse fill="none" stroke="lime" cx="258.91" cy="-823.51" rx="50.7" ry="42.21"/>
<text text-anchor="middle" x="258.91" y="-818.46" font-family="Times,serif" font-size="14.00">Vault</text>
</g>
<!-- label_security__compliance&#45;&gt;Vault -->
<g id="edge17" class="edge">
<title>label_security__compliance&#45;&gt;Vault</title>
<path fill="none" stroke="lime" d="M346.37,-666.11C330.58,-694.53 305.28,-740.05 285.95,-774.85"/>
<polygon fill="lime" stroke="lime" points="282.94,-773.05 281.14,-783.49 289.06,-776.45 282.94,-773.05"/>
</g>
<!-- Backstage -->
<g id="Backstage" class="node">
<title>Backstage</title>
<ellipse fill="none" stroke="aqua" cx="87.18" cy="-632.21" rx="69.79" ry="42.21"/>
<text text-anchor="middle" x="87.18" y="-627.16" font-family="Times,serif" font-size="14.00">Backstage</text>
</g>
<!-- label_developer_enablement&#45;&gt;Backstage -->
<g id="edge19" class="edge">
<title>label_developer_enablement&#45;&gt;Backstage</title>
<path fill="none" stroke="aqua" d="M225.23,-559.08C202.12,-571.32 174.5,-585.95 150.06,-598.9"/>
<polygon fill="aqua" stroke="aqua" points="148.7,-595.66 141.5,-603.43 151.98,-601.84 148.7,-595.66"/>
</g>
</g>
</svg>
