<?xml version="1.0" encoding="UTF-8" standalone="no"?>
<!DOCTYPE svg PUBLIC "-//W3C//DTD SVG 1.1//EN"
 "http://www.w3.org/Graphics/SVG/1.1/DTD/svg11.dtd">
<!-- Generated by graphviz version 9.0.0 (0)
 -->
<!-- Pages: 1 -->
<svg width="1147pt" height="1110pt"
 viewBox="0.00 0.00 1147.17 1109.90" xmlns="http://www.w3.org/2000/svg" xmlns:xlink="http://www.w3.org/1999/xlink">
<g id="full.example" class="graph" transform="scale(1 1) rotate(0) translate(36 1073.9)">
<polygon fill="white" stroke="none" points="-36,36 -36,-1073.9 1111.17,-1073.9 1111.17,36 -36,36"/>
<g id="cluster_cluster_management" class="cluster">
<title>cluster_cluster_management</title>
</g>
<g id="cluster_cloud_integration" class="cluster">
<title>cluster_cloud_integration</title>
</g>
<g id="cluster_continuous_deployment" class="cluster">
<title>cluster_continuous_deployment</title>
</g>
<g id="cluster_security__compliance" class="cluster">
<title>cluster_security__compliance</title>
</g>
<g id="cluster_developer_enablement" class="cluster">
<title>cluster_developer_enablement</title>
</g>
<g id="cluster_observability" class="cluster">
<title>cluster_observability</title>
</g>
<g id="cluster_networking" class="cluster">
<title>cluster_networking</title>
</g>
<!-- Kubernetes -->
<g id="Kubernetes" class="node">
<title>Kubernetes</title>
<ellipse fill="none" stroke="black" cx="532.31" cy="-528.77" rx="145.31" ry="113.49"/>
<text text-anchor="middle" x="532.31" y="-523.72" font-family="Times,serif" font-size="14.00">Kubernetes</text>
</g>
<!-- label_cluster_management -->
<g id="label_cluster_management" class="node">
<title>label_cluster_management</title>
<path fill="none" stroke="darkgreen" d="M854.69,-504.8C854.69,-504.8 697.64,-504.8 697.64,-504.8 691.64,-504.8 685.64,-498.8 685.64,-492.8 685.64,-492.8 685.64,-417.5 685.64,-417.5 685.64,-411.5 691.64,-405.5 697.64,-405.5 697.64,-405.5 854.69,-405.5 854.69,-405.5 860.69,-405.5 866.69,-411.5 866.69,-417.5 866.69,-417.5 866.69,-492.8 866.69,-492.8 866.69,-498.8 860.69,-504.8 854.69,-504.8"/>
<text text-anchor="middle" x="776.16" y="-466.65" font-family="Avenir Next, Helvetica" font-size="25.00" fill="#333333">Cluster</text>
<text text-anchor="middle" x="776.16" y="-431.4" font-family="Avenir Next, Helvetica" font-size="25.00" fill="#333333">Management</text>
</g>
<!-- Kubernetes&#45;&gt;label_cluster_management -->
<g id="Kubernetes&#45;label_cluster_management&#45;edge" class="edge">
<title>Kubernetes&#45;&gt;label_cluster_management</title>
<path fill="none" stroke="darkgreen" d="M668.14,-487.76C673.94,-486.01 679.69,-484.28 685.35,-482.57"/>
<polygon fill="darkgreen" stroke="darkgreen" points="685.35,-482.57 685.35,-482.57 685.35,-482.57 685.35,-482.57"/>
</g>
<!-- label_cloud_integration -->
<g id="label_cloud_integration" class="node">
<title>label_cloud_integration</title>
<path fill="none" stroke="darkblue" d="M656.64,-802.01C656.64,-802.01 527.34,-802.01 527.34,-802.01 521.34,-802.01 515.34,-796.01 515.34,-790.01 515.34,-790.01 515.34,-714.71 515.34,-714.71 515.34,-708.71 521.34,-702.71 527.34,-702.71 527.34,-702.71 656.64,-702.71 656.64,-702.71 662.64,-702.71 668.64,-708.71 668.64,-714.71 668.64,-714.71 668.64,-790.01 668.64,-790.01 668.64,-796.01 662.64,-802.01 656.64,-802.01"/>
<text text-anchor="middle" x="591.99" y="-763.86" font-family="Avenir Next, Helvetica" font-size="25.00" fill="#333333">Cloud</text>
<text text-anchor="middle" x="591.99" y="-728.61" font-family="Avenir Next, Helvetica" font-size="25.00" fill="#333333">Integration</text>
</g>
<!-- Kubernetes&#45;&gt;label_cloud_integration -->
<g id="Kubernetes&#45;label_cloud_integration&#45;edge" class="edge">
<title>Kubernetes&#45;&gt;label_cloud_integration</title>
<path fill="none" stroke="darkblue" d="M562.06,-640.24C567.87,-662.01 573.68,-683.79 578.62,-702.29"/>
<polygon fill="darkblue" stroke="darkblue" points="578.62,-702.29 578.62,-702.29 578.62,-702.29 578.62,-702.29"/>
</g>
<!-- label_continuous_deployment -->
<g id="label_continuous_deployment" class="node">
<title>label_continuous_deployment</title>
<path fill="none" stroke="#cd2990" d="M366.71,-469.42C366.71,-469.42 221.66,-469.42 221.66,-469.42 215.66,-469.42 209.66,-463.42 209.66,-457.42 209.66,-457.42 209.66,-382.12 209.66,-382.12 209.66,-376.12 215.66,-370.12 221.66,-370.12 221.66,-370.12 366.71,-370.12 366.71,-370.12 372.71,-370.12 378.71,-376.12 378.71,-382.12 378.71,-382.12 378.71,-457.42 378.71,-457.42 378.71,-463.42 372.71,-469.42 366.71,-469.42"/>
<text text-anchor="middle" x="294.18" y="-431.27" font-family="Avenir Next, Helvetica" font-size="25.00" fill="#333333">Continuous</text>
<text text-anchor="middle" x="294.18" y="-396.02" font-family="Avenir Next, Helvetica" font-size="25.00" fill="#333333">Deployment</text>
</g>
<!-- Kubernetes&#45;&gt;label_continuous_deployment -->
<g id="Kubernetes&#45;label_continuous_deployment&#45;edge" class="edge">
<title>Kubernetes&#45;&gt;label_continuous_deployment</title>
<path fill="none" stroke="#cd2990" d="M406.62,-471.24C397.34,-466.99 388.12,-462.77 379.17,-458.67"/>
<polygon fill="#cd2990" stroke="#cd2990" points="379.17,-458.67 379.17,-458.67 379.17,-458.67 379.17,-458.67"/>
</g>
<!-- label_observability -->
<g id="label_observability" class="node">
<title>label_observability</title>
<path fill="none" stroke="red" d="M661.39,-301.26C661.39,-301.26 505.84,-301.26 505.84,-301.26 499.84,-301.26 493.84,-295.26 493.84,-289.26 493.84,-289.26 493.84,-249.21 493.84,-249.21 493.84,-243.21 499.84,-237.21 505.84,-237.21 505.84,-237.21 661.39,-237.21 661.39,-237.21 667.39,-237.21 673.39,-243.21 673.39,-249.21 673.39,-249.21 673.39,-289.26 673.39,-289.26 673.39,-295.26 667.39,-301.26 661.39,-301.26"/>
<text text-anchor="middle" x="583.62" y="-263.11" font-family="Avenir Next, Helvetica" font-size="25.00" fill="#333333">Observability</text>
</g>
<!-- Kubernetes&#45;&gt;label_observability -->
<g id="Kubernetes&#45;label_observability&#45;edge" class="edge">
<title>Kubernetes&#45;&gt;label_observability</title>
<path fill="none" stroke="red" d="M554.51,-416.45C562.77,-374.66 571.52,-330.42 577.24,-301.48"/>
<polygon fill="red" stroke="red" points="577.24,-301.48 577.24,-301.48 577.24,-301.48 577.24,-301.48"/>
</g>
<!-- label_networking -->
<g id="label_networking" class="node">
<title>label_networking</title>
<path fill="none" stroke="burlywood" d="M836.08,-699.98C836.08,-699.98 698.53,-699.98 698.53,-699.98 692.53,-699.98 686.53,-693.98 686.53,-687.98 686.53,-687.98 686.53,-647.93 686.53,-647.93 686.53,-641.93 692.53,-635.93 698.53,-635.93 698.53,-635.93 836.08,-635.93 836.08,-635.93 842.08,-635.93 848.08,-641.93 848.08,-647.93 848.08,-647.93 848.08,-687.98 848.08,-687.98 848.08,-693.98 842.08,-699.98 836.08,-699.98"/>
<text text-anchor="middle" x="767.3" y="-661.83" font-family="Avenir Next, Helvetica" font-size="25.00" fill="#333333">Networking</text>
</g>
<!-- Kubernetes&#45;&gt;label_networking -->
<g id="Kubernetes&#45;label_networking&#45;edge" class="edge">
<title>Kubernetes&#45;&gt;label_networking</title>
<path fill="none" stroke="burlywood" d="M648.43,-597.55C670.86,-610.83 693.36,-624.16 712.65,-635.59"/>
<polygon fill="burlywood" stroke="burlywood" points="712.65,-635.59 712.65,-635.59 712.65,-635.59 712.65,-635.59"/>
</g>
<!-- label_security__compliance -->
<g id="label_security__compliance" class="node">
<title>label_security__compliance</title>
<path fill="none" stroke="lime" d="M494.97,-781.44C494.97,-781.44 329.67,-781.44 329.67,-781.44 323.67,-781.44 317.67,-775.44 317.67,-769.44 317.67,-769.44 317.67,-694.14 317.67,-694.14 317.67,-688.14 323.67,-682.14 329.67,-682.14 329.67,-682.14 494.97,-682.14 494.97,-682.14 500.97,-682.14 506.97,-688.14 506.97,-694.14 506.97,-694.14 506.97,-769.44 506.97,-769.44 506.97,-775.44 500.97,-781.44 494.97,-781.44"/>
<text text-anchor="middle" x="412.32" y="-743.29" font-family="Avenir Next, Helvetica" font-size="25.00" fill="#333333">Security</text>
<text text-anchor="middle" x="412.32" y="-708.04" font-family="Avenir Next, Helvetica" font-size="25.00" fill="#333333">&amp; Compliance</text>
</g>
<!-- Kubernetes&#45;&gt;label_security__compliance -->
<g id="Kubernetes&#45;label_security__compliance&#45;edge" class="edge">
<title>Kubernetes&#45;&gt;label_security__compliance</title>
<path fill="none" stroke="lime" d="M471.26,-632.06C461.01,-649.4 450.8,-666.67 441.84,-681.85"/>
<polygon fill="lime" stroke="lime" points="441.84,-681.85 441.84,-681.85 441.84,-681.85 441.84,-681.85"/>
</g>
<!-- label_developer_enablement -->
<g id="label_developer_enablement" class="node">
<title>label_developer_enablement</title>
<path fill="none" stroke="aqua" d="M366.97,-669.46C366.97,-669.46 224.92,-669.46 224.92,-669.46 218.92,-669.46 212.92,-663.46 212.92,-657.46 212.92,-657.46 212.92,-582.16 212.92,-582.16 212.92,-576.16 218.92,-570.16 224.92,-570.16 224.92,-570.16 366.97,-570.16 366.97,-570.16 372.97,-570.16 378.97,-576.16 378.97,-582.16 378.97,-582.16 378.97,-657.46 378.97,-657.46 378.97,-663.46 372.97,-669.46 366.97,-669.46"/>
<text text-anchor="middle" x="295.94" y="-631.31" font-family="Avenir Next, Helvetica" font-size="25.00" fill="#333333">Developer</text>
<text text-anchor="middle" x="295.94" y="-596.06" font-family="Avenir Next, Helvetica" font-size="25.00" fill="#333333">Enablement</text>
</g>
<!-- Kubernetes&#45;&gt;label_developer_enablement -->
<g id="Kubernetes&#45;label_developer_enablement&#45;edge" class="edge">
<title>Kubernetes&#45;&gt;label_developer_enablement</title>
<path fill="none" stroke="aqua" d="M401.68,-579.09C394.1,-582.01 386.59,-584.9 379.27,-587.72"/>
<polygon fill="aqua" stroke="aqua" points="379.27,-587.72 379.27,-587.72 379.27,-587.72 379.27,-587.72"/>
</g>
<!-- Rancher -->
<g id="Rancher" class="node">
<title>Rancher</title>
<ellipse fill="none" stroke="darkgreen" cx="1002.55" cy="-403.36" rx="62.37" ry="42.21"/>
<text text-anchor="middle" x="1002.55" y="-398.31" font-family="Times,serif" font-size="14.00">Rancher</text>
</g>
<!-- label_cluster_management&#45;&gt;Rancher -->
<g id="label_cluster_management&#45;Rancher&#45;edge" class="edge">
<title>label_cluster_management&#45;&gt;Rancher</title>
<path fill="none" stroke="darkgreen" d="M866.94,-434.39C888.63,-429.42 911.47,-424.2 932.09,-419.48"/>
<polygon fill="darkgreen" stroke="darkgreen" points="932.85,-422.9 941.82,-417.25 931.29,-416.07 932.85,-422.9"/>
</g>
<!-- AWS -->
<g id="AWS" class="node">
<title>AWS</title>
<ellipse fill="none" stroke="darkblue" cx="604.27" cy="-995.69" rx="51.76" ry="42.21"/>
<text text-anchor="middle" x="604.27" y="-990.64" font-family="Times,serif" font-size="14.00">AWS</text>
</g>
<!-- label_cloud_integration&#45;&gt;AWS -->
<g id="label_cloud_integration&#45;AWS&#45;edge" class="edge">
<title>label_cloud_integration&#45;&gt;AWS</title>
<path fill="none" stroke="darkblue" d="M594.52,-802.48C596.57,-843.18 599.46,-900.43 601.56,-942.04"/>
<polygon fill="darkblue" stroke="darkblue" points="598.05,-942.01 602.05,-951.82 605.05,-941.66 598.05,-942.01"/>
</g>
<!-- Helm -->
<g id="Helm" class="node">
<title>Helm</title>
<ellipse fill="none" stroke="#cd2990" cx="52.29" cy="-449.51" rx="52.29" ry="42.21"/>
<text text-anchor="middle" x="52.29" y="-444.46" font-family="Times,serif" font-size="14.00">Helm</text>
</g>
<!-- label_continuous_deployment&#45;&gt;Helm -->
<g id="label_continuous_deployment&#45;Helm&#45;edge" class="edge">
<title>label_continuous_deployment&#45;&gt;Helm</title>
<path fill="none" stroke="#cd2990" d="M209.24,-430.21C178.36,-434.01 144.02,-438.23 115.36,-441.75"/>
<polygon fill="#cd2990" stroke="#cd2990" points="115.27,-438.24 105.77,-442.93 116.13,-445.19 115.27,-438.24"/>
</g>
<!-- Argo -->
<g id="Argo" class="node">
<title>Argo</title>
<ellipse fill="none" stroke="#cd2990" cx="139.26" cy="-253.27" rx="50.17" ry="42.21"/>
<text text-anchor="middle" x="139.26" y="-248.22" font-family="Times,serif" font-size="14.00">Argo</text>
</g>
<!-- label_continuous_deployment&#45;&gt;Argo -->
<g id="label_continuous_deployment&#45;Argo&#45;edge" class="edge">
<title>label_continuous_deployment&#45;&gt;Argo</title>
<path fill="none" stroke="#cd2990" d="M247.7,-369.82C225.57,-346.03 199.4,-317.91 178.32,-295.25"/>
<polygon fill="#cd2990" stroke="#cd2990" points="180.91,-292.89 171.54,-287.96 175.79,-297.66 180.91,-292.89"/>
</g>
<!-- Grafana -->
<g id="Grafana" class="node">
<title>Grafana</title>
<ellipse fill="none" stroke="red" cx="697.3" cy="-67.4" rx="61.31" ry="42.21"/>
<text text-anchor="middle" x="697.3" y="-62.35" font-family="Times,serif" font-size="14.00">Grafana</text>
</g>
<!-- label_observability&#45;&gt;Grafana -->
<g id="label_observability&#45;Grafana&#45;edge" class="edge">
<title>label_observability&#45;&gt;Grafana</title>
<path fill="none" stroke="red" d="M601.88,-236.81C620.15,-204.38 648.47,-154.09 669.52,-116.72"/>
<polygon fill="red" stroke="red" points="672.38,-118.78 674.24,-108.35 666.28,-115.34 672.38,-118.78"/>
</g>
<!-- Loki -->
<g id="Loki" class="node">
<title>Loki</title>
<ellipse fill="none" stroke="red" cx="533.37" cy="-42.21" rx="48.58" ry="42.21"/>
<text text-anchor="middle" x="533.37" y="-37.16" font-family="Times,serif" font-size="14.00">Loki</text>
</g>
<!-- label_observability&#45;&gt;Loki -->
<g id="label_observability&#45;Loki&#45;edge" class="edge">
<title>label_observability&#45;&gt;Loki</title>
<path fill="none" stroke="red" d="M576.52,-237.19C568.36,-200.31 554.83,-139.19 545.09,-95.2"/>
<polygon fill="red" stroke="red" points="548.55,-94.61 542.97,-85.6 541.71,-96.12 548.55,-94.61"/>
</g>
<!-- Tempo -->
<g id="Tempo" class="node">
<title>Tempo</title>
<ellipse fill="none" stroke="red" cx="399.55" cy="-118.33" rx="58.12" ry="42.21"/>
<text text-anchor="middle" x="399.55" y="-113.28" font-family="Times,serif" font-size="14.00">Tempo</text>
</g>
<!-- label_observability&#45;&gt;Tempo -->
<g id="label_observability&#45;Tempo&#45;edge" class="edge">
<title>label_observability&#45;&gt;Tempo</title>
<path fill="none" stroke="red" d="M544.13,-236.86C515.67,-213.53 477.13,-181.94 447,-157.23"/>
<polygon fill="red" stroke="red" points="449.46,-154.72 439.51,-151.09 445.02,-160.14 449.46,-154.72"/>
</g>
<!-- Prometheus -->
<g id="Prometheus" class="node">
<title>Prometheus</title>
<ellipse fill="none" stroke="red" cx="809.2" cy="-178.27" rx="76.16" ry="42.21"/>
<text text-anchor="middle" x="809.2" y="-173.22" font-family="Times,serif" font-size="14.00">Prometheus</text>
</g>
<!-- label_observability&#45;&gt;Prometheus -->
<g id="label_observability&#45;Prometheus&#45;edge" class="edge">
<title>label_observability&#45;&gt;Prometheus</title>
<path fill="none" stroke="red" d="M664.1,-236.78C687.8,-227.22 713.58,-216.83 736.75,-207.49"/>
<polygon fill="red" stroke="red" points="737.82,-210.83 745.79,-203.84 735.2,-204.33 737.82,-210.83"/>
</g>
<!-- Istio -->
<g id="Istio" class="node">
<title>Istio</title>
<ellipse fill="none" stroke="burlywood" cx="882.48" cy="-869.4" rx="47.52" ry="42.21"/>
<text text-anchor="middle" x="882.48" y="-864.35" font-family="Times,serif" font-size="14.00">Istio</text>
</g>
<!-- label_networking&#45;&gt;Istio -->
<g id="label_networking&#45;Istio&#45;edge" class="edge">
<title>label_networking&#45;&gt;Istio</title>
<path fill="none" stroke="burlywood" d="M785.81,-700.32C804.6,-733.19 833.92,-784.46 855.34,-821.93"/>
<polygon fill="burlywood" stroke="burlywood" points="852.13,-823.36 860.13,-830.31 858.2,-819.89 852.13,-823.36"/>
</g>
<!-- CoreDNS -->
<g id="CoreDNS" class="node">
<title>CoreDNS</title>
<ellipse fill="none" stroke="burlywood" cx="1006.97" cy="-677.81" rx="68.2" ry="42.21"/>
<text text-anchor="middle" x="1006.97" y="-672.76" font-family="Times,serif" font-size="14.00">CoreDNS</text>
</g>
<!-- label_networking&#45;&gt;CoreDNS -->
<g id="label_networking&#45;CoreDNS&#45;edge" class="edge">
<title>label_networking&#45;&gt;CoreDNS</title>
<path fill="none" stroke="burlywood" d="M848.44,-671.29C873.88,-672.34 901.92,-673.49 927.26,-674.53"/>
<polygon fill="burlywood" stroke="burlywood" points="927.04,-678.02 937.18,-674.94 927.33,-671.03 927.04,-678.02"/>
</g>
<!-- Vault -->
<g id="Vault" class="node">
<title>Vault</title>
<ellipse fill="none" stroke="lime" cx="298.81" cy="-946.85" rx="50.7" ry="42.21"/>
<text text-anchor="middle" x="298.81" y="-941.8" font-family="Times,serif" font-size="14.00">Vault</text>
</g>
<!-- label_security__compliance&#45;&gt;Vault -->
<g id="label_security__compliance&#45;Vault&#45;edge" class="edge">
<title>label_security__compliance&#45;&gt;Vault</title>
<path fill="none" stroke="lime" d="M385.99,-781.67C367.51,-816.68 342.93,-863.27 324.57,-898.04"/>
<polygon fill="lime" stroke="lime" points="321.61,-896.15 320.04,-906.63 327.8,-899.42 321.61,-896.15"/>
</g>
<!-- Backstage -->
<g id="Backstage" class="node">
<title>Backstage</title>
<ellipse fill="none" stroke="aqua" cx="89.4" cy="-728.05" rx="69.79" ry="42.21"/>
<text text-anchor="middle" x="89.4" y="-723" font-family="Times,serif" font-size="14.00">Backstage</text>
</g>
<!-- label_developer_enablement&#45;&gt;Backstage -->
<g id="label_developer_enablement&#45;Backstage&#45;edge" class="edge">
<title>label_developer_enablement&#45;&gt;Backstage</title>
<path fill="none" stroke="aqua" d="M212.53,-663.53C192.51,-674.02 171.45,-685.06 152.52,-694.98"/>
<polygon fill="aqua" stroke="aqua" points="151.11,-691.76 143.88,-699.5 154.36,-697.96 151.11,-691.76"/>
</g>
</g>
</svg>
