<?xml version="1.0" encoding="UTF-8" standalone="no"?>
<!DOCTYPE svg PUBLIC "-//W3C//DTD SVG 1.1//EN"
 "http://www.w3.org/Graphics/SVG/1.1/DTD/svg11.dtd">
<!-- Generated by graphviz version 2.43.0 (0)
 -->
<!-- Title: %3 Pages: 1 -->
<svg width="1097pt" height="1002pt"
 viewBox="0.00 0.00 1096.96 1002.31" xmlns="http://www.w3.org/2000/svg" xmlns:xlink="http://www.w3.org/1999/xlink">
<g id="full.example" class="graph" transform="scale(1 1) rotate(0) translate(36 966.31)">
<title>%3</title>
<polygon fill="#ffffff" stroke="transparent" points="-36,36 -36,-966.31 1060.96,-966.31 1060.96,36 -36,36"/>
<g id="cluster_cluster_management" class="cluster">
<title>cluster_cluster_management</title>
</g>
<g id="cluster_cloud_integration" class="cluster">
<title>cluster_cloud_integration</title>
</g>
<g id="cluster_continuous_deployment" class="cluster">
<title>cluster_continuous_deployment</title>
</g>
<g id="cluster_observability" class="cluster">
<title>cluster_observability</title>
</g>
<g id="cluster_networking" class="cluster">
<title>cluster_networking</title>
</g>
<g id="cluster_security__compliance" class="cluster">
<title>cluster_security__compliance</title>
</g>
<g id="cluster_developer_enablement" class="cluster">
<title>cluster_developer_enablement</title>
</g>
<!-- Kubernetes -->
<g id="Kubernetes" class="node">
<title>Kubernetes</title>
<ellipse fill="none" stroke="black" cx="505.48" cy="-471.37" rx="160.53" ry="112.36"/>
<text text-anchor="middle" x="505.48" y="-467.67" font-family="Times,serif" font-size="14.00">Kubernetes</text>
</g>
<!-- label_cluster_management -->
<g id="label_cluster_management" class="node">
<title>label_cluster_management</title>
<path fill="none" stroke="darkgreen" d="M805.09,-435.6C805.09,-435.6 686.09,-435.6 686.09,-435.6 680.09,-435.6 674.09,-429.6 674.09,-423.6 674.09,-423.6 674.09,-375.6 674.09,-375.6 674.09,-369.6 680.09,-363.6 686.09,-363.6 686.09,-363.6 805.09,-363.6 805.09,-363.6 811.09,-363.6 817.09,-369.6 817.09,-375.6 817.09,-375.6 817.09,-423.6 817.09,-423.6 817.09,-429.6 811.09,-435.6 805.09,-435.6"/>
<text text-anchor="middle" x="745.59" y="-405.2" font-family="Avenir Next, Helvetica" font-size="18.00" fill="#333333">Cluster</text>
<text text-anchor="middle" x="745.59" y="-385.2" font-family="Avenir Next, Helvetica" font-size="18.00" fill="#333333">Management</text>
</g>
<!-- Kubernetes&#45;&gt;label_cluster_management -->
<g id="Kubernetes&#45;label_cluster_management&#45;edge" class="edge">
<title>Kubernetes&#45;&gt;label_cluster_management</title>
<path fill="none" stroke="darkgreen" d="M653.44,-427.15C660.38,-425.07 667.18,-423.04 673.75,-421.08"/>
<polygon fill="darkgreen" stroke="darkgreen" points="674.07,-420.98 674.07,-420.98 674.07,-420.98 674.07,-420.98"/>
</g>
<!-- label_cloud_integration -->
<g id="label_cloud_integration" class="node">
<title>label_cloud_integration</title>
<path fill="none" stroke="darkblue" d="M600.1,-706.37C600.1,-706.37 501.1,-706.37 501.1,-706.37 495.1,-706.37 489.1,-700.37 489.1,-694.37 489.1,-694.37 489.1,-646.37 489.1,-646.37 489.1,-640.37 495.1,-634.37 501.1,-634.37 501.1,-634.37 600.1,-634.37 600.1,-634.37 606.1,-634.37 612.1,-640.37 612.1,-646.37 612.1,-646.37 612.1,-694.37 612.1,-694.37 612.1,-700.37 606.1,-706.37 600.1,-706.37"/>
<text text-anchor="middle" x="550.6" y="-675.97" font-family="Avenir Next, Helvetica" font-size="18.00" fill="#333333">Cloud</text>
<text text-anchor="middle" x="550.6" y="-655.97" font-family="Avenir Next, Helvetica" font-size="18.00" fill="#333333">Integration</text>
</g>
<!-- Kubernetes&#45;&gt;label_cloud_integration -->
<g id="Kubernetes&#45;label_cloud_integration&#45;edge" class="edge">
<title>Kubernetes&#45;&gt;label_cloud_integration</title>
<path fill="none" stroke="darkblue" d="M530.67,-582.51C534.88,-601.06 538.96,-619.06 542.32,-633.89"/>
<polygon fill="darkblue" stroke="darkblue" points="542.4,-634.24 542.4,-634.24 542.4,-634.24 542.4,-634.24"/>
</g>
<!-- label_continuous_deployment -->
<g id="label_continuous_deployment" class="node">
<title>label_continuous_deployment</title>
<path fill="none" stroke="#cd2990" d="M324.92,-399.97C324.92,-399.97 213.92,-399.97 213.92,-399.97 207.92,-399.97 201.92,-393.97 201.92,-387.97 201.92,-387.97 201.92,-339.97 201.92,-339.97 201.92,-333.97 207.92,-327.97 213.92,-327.97 213.92,-327.97 324.92,-327.97 324.92,-327.97 330.92,-327.97 336.92,-333.97 336.92,-339.97 336.92,-339.97 336.92,-387.97 336.92,-387.97 336.92,-393.97 330.92,-399.97 324.92,-399.97"/>
<text text-anchor="middle" x="269.42" y="-369.57" font-family="Avenir Next, Helvetica" font-size="18.00" fill="#333333">Continuous</text>
<text text-anchor="middle" x="269.42" y="-349.57" font-family="Avenir Next, Helvetica" font-size="18.00" fill="#333333">Deployment</text>
</g>
<!-- Kubernetes&#45;&gt;label_continuous_deployment -->
<g id="Kubernetes&#45;label_continuous_deployment&#45;edge" class="edge">
<title>Kubernetes&#45;&gt;label_continuous_deployment</title>
<path fill="none" stroke="#cd2990" d="M370.56,-409.99C359.08,-404.77 347.82,-399.64 337.23,-394.82"/>
<polygon fill="#cd2990" stroke="#cd2990" points="336.98,-394.71 336.98,-394.71 336.98,-394.71 336.98,-394.71"/>
</g>
<!-- label_observability -->
<g id="label_observability" class="node">
<title>label_observability</title>
<path fill="none" stroke="red" d="M613.13,-266.22C613.13,-266.22 494.13,-266.22 494.13,-266.22 488.13,-266.22 482.13,-260.22 482.13,-254.22 482.13,-254.22 482.13,-226.22 482.13,-226.22 482.13,-220.22 488.13,-214.22 494.13,-214.22 494.13,-214.22 613.13,-214.22 613.13,-214.22 619.13,-214.22 625.13,-220.22 625.13,-226.22 625.13,-226.22 625.13,-254.22 625.13,-254.22 625.13,-260.22 619.13,-266.22 613.13,-266.22"/>
<text text-anchor="middle" x="553.63" y="-235.82" font-family="Avenir Next, Helvetica" font-size="18.00" fill="#333333">Observability</text>
</g>
<!-- Kubernetes&#45;&gt;label_observability -->
<g id="Kubernetes&#45;label_observability&#45;edge" class="edge">
<title>Kubernetes&#45;&gt;label_observability</title>
<path fill="none" stroke="red" d="M528.71,-359.86C535.94,-325.13 543.28,-289.91 548.1,-266.77"/>
<polygon fill="red" stroke="red" points="548.16,-266.5 548.16,-266.5 548.16,-266.5 548.16,-266.5"/>
</g>
<!-- label_networking -->
<g id="label_networking" class="node">
<title>label_networking</title>
<path fill="none" stroke="burlywood" d="M791.01,-635.4C791.01,-635.4 686.01,-635.4 686.01,-635.4 680.01,-635.4 674.01,-629.4 674.01,-623.4 674.01,-623.4 674.01,-595.4 674.01,-595.4 674.01,-589.4 680.01,-583.4 686.01,-583.4 686.01,-583.4 791.01,-583.4 791.01,-583.4 797.01,-583.4 803.01,-589.4 803.01,-595.4 803.01,-595.4 803.01,-623.4 803.01,-623.4 803.01,-629.4 797.01,-635.4 791.01,-635.4"/>
<text text-anchor="middle" x="738.51" y="-605" font-family="Avenir Next, Helvetica" font-size="18.00" fill="#333333">Networking</text>
</g>
<!-- Kubernetes&#45;&gt;label_networking -->
<g id="Kubernetes&#45;label_networking&#45;edge" class="edge">
<title>Kubernetes&#45;&gt;label_networking</title>
<path fill="none" stroke="burlywood" d="M628.14,-544.03C651.75,-558.01 675.02,-571.79 694.06,-583.07"/>
<polygon fill="burlywood" stroke="burlywood" points="694.51,-583.34 694.51,-583.34 694.51,-583.34 694.51,-583.34"/>
</g>
<!-- label_security__compliance -->
<g id="label_security__compliance" class="node">
<title>label_security__compliance</title>
<path fill="none" stroke="lime" d="M468.13,-689.72C468.13,-689.72 342.13,-689.72 342.13,-689.72 336.13,-689.72 330.13,-683.72 330.13,-677.72 330.13,-677.72 330.13,-629.72 330.13,-629.72 330.13,-623.72 336.13,-617.72 342.13,-617.72 342.13,-617.72 468.13,-617.72 468.13,-617.72 474.13,-617.72 480.13,-623.72 480.13,-629.72 480.13,-629.72 480.13,-677.72 480.13,-677.72 480.13,-683.72 474.13,-689.72 468.13,-689.72"/>
<text text-anchor="middle" x="405.13" y="-659.32" font-family="Avenir Next, Helvetica" font-size="18.00" fill="#333333">Security</text>
<text text-anchor="middle" x="405.13" y="-639.32" font-family="Avenir Next, Helvetica" font-size="18.00" fill="#333333">&amp; Compliance</text>
</g>
<!-- Kubernetes&#45;&gt;label_security__compliance -->
<g id="Kubernetes&#45;label_security__compliance&#45;edge" class="edge">
<title>Kubernetes&#45;&gt;label_security__compliance</title>
<path fill="none" stroke="lime" d="M447.68,-576.39C439.64,-591 431.87,-605.13 425.22,-617.22"/>
<polygon fill="lime" stroke="lime" points="425.06,-617.5 425.06,-617.5 425.06,-617.5 425.06,-617.5"/>
</g>
<!-- label_developer_enablement -->
<g id="label_developer_enablement" class="node">
<title>label_developer_enablement</title>
<path fill="none" stroke="aqua" d="M324.87,-597.37C324.87,-597.37 216.87,-597.37 216.87,-597.37 210.87,-597.37 204.87,-591.37 204.87,-585.37 204.87,-585.37 204.87,-537.37 204.87,-537.37 204.87,-531.37 210.87,-525.37 216.87,-525.37 216.87,-525.37 324.87,-525.37 324.87,-525.37 330.87,-525.37 336.87,-531.37 336.87,-537.37 336.87,-537.37 336.87,-585.37 336.87,-585.37 336.87,-591.37 330.87,-597.37 324.87,-597.37"/>
<text text-anchor="middle" x="270.87" y="-566.97" font-family="Avenir Next, Helvetica" font-size="18.00" fill="#333333">Developer</text>
<text text-anchor="middle" x="270.87" y="-546.97" font-family="Avenir Next, Helvetica" font-size="18.00" fill="#333333">Enablement</text>
</g>
<!-- Kubernetes&#45;&gt;label_developer_enablement -->
<g id="Kubernetes&#45;label_developer_enablement&#45;edge" class="edge">
<title>Kubernetes&#45;&gt;label_developer_enablement</title>
<path fill="none" stroke="aqua" d="M364.61,-525.41C355.22,-529.01 346.04,-532.54 337.33,-535.88"/>
<polygon fill="aqua" stroke="aqua" points="336.91,-536.04 336.91,-536.04 336.91,-536.04 336.91,-536.04"/>
</g>
<!-- Rancher -->
<g id="Rancher" class="node">
<title>Rancher</title>
<ellipse fill="none" stroke="darkgreen" cx="941.24" cy="-359.59" rx="73.58" ry="41.94"/>
<text text-anchor="middle" x="941.24" y="-355.89" font-family="Times,serif" font-size="14.00">Rancher</text>
</g>
<!-- label_cluster_management&#45;&gt;Rancher -->
<g id="label_cluster_management&#45;Rancher&#45;edge" class="edge">
<title>label_cluster_management&#45;&gt;Rancher</title>
<path fill="none" stroke="darkgreen" d="M817.33,-384.93C831.78,-381.98 847.04,-378.86 861.73,-375.85"/>
<polygon fill="darkgreen" stroke="darkgreen" points="862.7,-379.23 871.79,-373.8 861.29,-372.37 862.7,-379.23"/>
</g>
<!-- AWS -->
<g id="AWS" class="node">
<title>AWS</title>
<ellipse fill="none" stroke="darkblue" cx="570.13" cy="-888.59" rx="55.31" ry="41.94"/>
<text text-anchor="middle" x="570.13" y="-884.89" font-family="Times,serif" font-size="14.00">AWS</text>
</g>
<!-- label_cloud_integration&#45;&gt;AWS -->
<g id="label_cloud_integration&#45;AWS&#45;edge" class="edge">
<title>label_cloud_integration&#45;&gt;AWS</title>
<path fill="none" stroke="darkblue" d="M553.82,-706.41C557,-741.93 561.89,-796.58 565.49,-836.77"/>
<polygon fill="darkblue" stroke="darkblue" points="562.02,-837.26 566.4,-846.91 568.99,-836.64 562.02,-837.26"/>
</g>
<!-- Helm -->
<g id="Helm" class="node">
<title>Helm</title>
<ellipse fill="none" stroke="#cd2990" cx="58.69" cy="-398.56" rx="58.88" ry="41.94"/>
<text text-anchor="middle" x="58.69" y="-394.86" font-family="Times,serif" font-size="14.00">Helm</text>
</g>
<!-- label_continuous_deployment&#45;&gt;Helm -->
<g id="label_continuous_deployment&#45;Helm&#45;edge" class="edge">
<title>label_continuous_deployment&#45;&gt;Helm</title>
<path fill="none" stroke="#cd2990" d="M201.87,-375.06C177.65,-379.03 150.34,-383.52 126.12,-387.49"/>
<polygon fill="#cd2990" stroke="#cd2990" points="125.25,-384.09 115.95,-389.16 126.39,-390.99 125.25,-384.09"/>
</g>
<!-- Argo -->
<g id="Argo" class="node">
<title>Argo</title>
<ellipse fill="none" stroke="#cd2990" cx="140.23" cy="-223.59" rx="55.31" ry="41.94"/>
<text text-anchor="middle" x="140.23" y="-219.89" font-family="Times,serif" font-size="14.00">Argo</text>
</g>
<!-- label_continuous_deployment&#45;&gt;Argo -->
<g id="label_continuous_deployment&#45;Argo&#45;edge" class="edge">
<title>label_continuous_deployment&#45;&gt;Argo</title>
<path fill="none" stroke="#cd2990" d="M236.15,-327.82C218.65,-308.8 197.1,-285.38 178.87,-265.57"/>
<polygon fill="#cd2990" stroke="#cd2990" points="181.4,-263.15 172.05,-258.16 176.25,-267.89 181.4,-263.15"/>
</g>
<!-- Grafana -->
<g id="Grafana" class="node">
<title>Grafana</title>
<ellipse fill="none" stroke="red" cx="655.19" cy="-61.34" rx="72.25" ry="41.94"/>
<text text-anchor="middle" x="655.19" y="-57.64" font-family="Times,serif" font-size="14.00">Grafana</text>
</g>
<!-- label_observability&#45;&gt;Grafana -->
<g id="label_observability&#45;Grafana&#45;edge" class="edge">
<title>label_observability&#45;&gt;Grafana</title>
<path fill="none" stroke="red" d="M568.4,-214.21C583.85,-186.99 608.47,-143.62 627.55,-110.02"/>
<polygon fill="red" stroke="red" points="630.63,-111.69 632.52,-101.26 624.54,-108.23 630.63,-111.69"/>
</g>
<!-- Loki -->
<g id="Loki" class="node">
<title>Loki</title>
<ellipse fill="none" stroke="red" cx="510.69" cy="-41.72" rx="53.07" ry="41.94"/>
<text text-anchor="middle" x="510.69" y="-38.02" font-family="Times,serif" font-size="14.00">Loki</text>
</g>
<!-- label_observability&#45;&gt;Loki -->
<g id="label_observability&#45;Loki&#45;edge" class="edge">
<title>label_observability&#45;&gt;Loki</title>
<path fill="none" stroke="red" d="M547.93,-213.86C541.29,-183.17 530.17,-131.76 521.8,-93.1"/>
<polygon fill="red" stroke="red" points="525.17,-92.1 519.63,-83.06 518.32,-93.58 525.17,-92.1"/>
</g>
<!-- Tempo -->
<g id="Tempo" class="node">
<title>Tempo</title>
<ellipse fill="none" stroke="red" cx="384.38" cy="-114.42" rx="65.11" ry="41.94"/>
<text text-anchor="middle" x="384.38" y="-110.72" font-family="Times,serif" font-size="14.00">Tempo</text>
</g>
<!-- label_observability&#45;&gt;Tempo -->
<g id="label_observability&#45;Tempo&#45;edge" class="edge">
<title>label_observability&#45;&gt;Tempo</title>
<path fill="none" stroke="red" d="M518.56,-214.16C494.43,-196.22 462,-172.11 435.07,-152.1"/>
<polygon fill="red" stroke="red" points="437.02,-149.18 426.9,-146.02 432.84,-154.8 437.02,-149.18"/>
</g>
<!-- Prometheus -->
<g id="Prometheus" class="node">
<title>Prometheus</title>
<ellipse fill="none" stroke="red" cx="759.67" cy="-159.41" rx="92.76" ry="41.94"/>
<text text-anchor="middle" x="759.67" y="-155.71" font-family="Times,serif" font-size="14.00">Prometheus</text>
</g>
<!-- label_observability&#45;&gt;Prometheus -->
<g id="label_observability&#45;Prometheus&#45;edge" class="edge">
<title>label_observability&#45;&gt;Prometheus</title>
<path fill="none" stroke="red" d="M619.95,-214.21C639.15,-206.68 660.3,-198.39 680.21,-190.58"/>
<polygon fill="red" stroke="red" points="681.53,-193.82 689.56,-186.91 678.97,-187.3 681.53,-193.82"/>
</g>
<!-- Istio -->
<g id="Istio" class="node">
<title>Istio</title>
<ellipse fill="none" stroke="burlywood" cx="828.97" cy="-781.03" rx="53.98" ry="41.94"/>
<text text-anchor="middle" x="828.97" y="-777.33" font-family="Times,serif" font-size="14.00">Istio</text>
</g>
<!-- label_networking&#45;&gt;Istio -->
<g id="label_networking&#45;Istio&#45;edge" class="edge">
<title>label_networking&#45;&gt;Istio</title>
<path fill="none" stroke="burlywood" d="M752.25,-635.47C765.88,-661.33 787.09,-701.56 803.75,-733.18"/>
<polygon fill="burlywood" stroke="burlywood" points="800.78,-735.06 808.54,-742.27 806.97,-731.79 800.78,-735.06"/>
</g>
<!-- CoreDNS -->
<g id="CoreDNS" class="node">
<title>CoreDNS</title>
<ellipse fill="none" stroke="burlywood" cx="946.47" cy="-609.83" rx="78.48" ry="41.94"/>
<text text-anchor="middle" x="946.47" y="-606.13" font-family="Times,serif" font-size="14.00">CoreDNS</text>
</g>
<!-- label_networking&#45;&gt;CoreDNS -->
<g id="label_networking&#45;CoreDNS&#45;edge" class="edge">
<title>label_networking&#45;&gt;CoreDNS</title>
<path fill="none" stroke="burlywood" d="M803.17,-609.54C820.48,-609.57 839.48,-609.61 857.84,-609.65"/>
<polygon fill="burlywood" stroke="burlywood" points="857.94,-613.15 867.95,-609.67 857.96,-606.15 857.94,-613.15"/>
</g>
<!-- Vault -->
<g id="Vault" class="node">
<title>Vault</title>
<ellipse fill="none" stroke="lime" cx="297.77" cy="-844.89" rx="57.05" ry="41.94"/>
<text text-anchor="middle" x="297.77" y="-841.19" font-family="Times,serif" font-size="14.00">Vault</text>
</g>
<!-- label_security__compliance&#45;&gt;Vault -->
<g id="label_security__compliance&#45;Vault&#45;edge" class="edge">
<title>label_security__compliance&#45;&gt;Vault</title>
<path fill="none" stroke="lime" d="M384.68,-690.13C367.66,-720.43 343.3,-763.81 324.7,-796.94"/>
<polygon fill="lime" stroke="lime" points="321.46,-795.56 319.62,-805.99 327.57,-798.98 321.46,-795.56"/>
</g>
<!-- Backstage -->
<g id="Backstage" class="node">
<title>Backstage</title>
<ellipse fill="none" stroke="aqua" cx="99.43" cy="-651.4" rx="83.38" ry="41.94"/>
<text text-anchor="middle" x="99.43" y="-647.7" font-family="Times,serif" font-size="14.00">Backstage</text>
</g>
<!-- label_developer_enablement&#45;&gt;Backstage -->
<g id="label_developer_enablement&#45;Backstage&#45;edge" class="edge">
<title>label_developer_enablement&#45;&gt;Backstage</title>
<path fill="none" stroke="aqua" d="M204.59,-596.18C192,-602.79 178.83,-609.71 166.22,-616.32"/>
<polygon fill="aqua" stroke="aqua" points="164.39,-613.33 157.17,-621.08 167.65,-619.53 164.39,-613.33"/>
</g>
</g>
</svg>
