<?xml version="1.0" encoding="UTF-8" standalone="no"?>
<!DOCTYPE svg PUBLIC "-//W3C//DTD SVG 1.1//EN"
 "http://www.w3.org/Graphics/SVG/1.1/DTD/svg11.dtd">
<!-- Generated by graphviz version 2.43.0 (0)
 -->
<!-- Title: %3 Pages: 1 -->
<svg width="1215pt" height="1118pt"
 viewBox="0.00 0.00 1215.34 1118.01" xmlns="http://www.w3.org/2000/svg" xmlns:xlink="http://www.w3.org/1999/xlink">
<g id="full.example" class="graph" transform="scale(1 1) rotate(0) translate(36 1082.01)">
<title>%3</title>
<polygon fill="white" stroke="transparent" points="-36,36 -36,-1082.01 1179.34,-1082.01 1179.34,36 -36,36"/>
<g id="cluster_cluster_management" class="cluster">
<title>cluster_cluster_management</title>
</g>
<g id="cluster_cloud_integration" class="cluster">
<title>cluster_cloud_integration</title>
</g>
<g id="cluster_continuous_deployment" class="cluster">
<title>cluster_continuous_deployment</title>
</g>
<g id="cluster_observability" class="cluster">
<title>cluster_observability</title>
</g>
<g id="cluster_networking" class="cluster">
<title>cluster_networking</title>
</g>
<g id="cluster_security__compliance" class="cluster">
<title>cluster_security__compliance</title>
</g>
<g id="cluster_developer_enablement" class="cluster">
<title>cluster_developer_enablement</title>
</g>
<!-- Kubernetes -->
<g id="Kubernetes" class="node">
<title>Kubernetes</title>
<ellipse fill="none" stroke="black" cx="563.33" cy="-522.45" rx="160.53" ry="112.36"/>
<text text-anchor="middle" x="563.33" y="-518.75" font-family="Times,serif" font-size="14.00">Kubernetes</text>
</g>
<!-- label_cluster_management -->
<g id="label_cluster_management" class="node">
<title>label_cluster_management</title>
<path fill="none" stroke="darkgreen" d="M913.11,-493.61C913.11,-493.61 744.11,-493.61 744.11,-493.61 738.11,-493.61 732.11,-487.61 732.11,-481.61 732.11,-481.61 732.11,-405.61 732.11,-405.61 732.11,-399.61 738.11,-393.61 744.11,-393.61 744.11,-393.61 913.11,-393.61 913.11,-393.61 919.11,-393.61 925.11,-399.61 925.11,-405.61 925.11,-405.61 925.11,-481.61 925.11,-481.61 925.11,-487.61 919.11,-493.61 913.11,-493.61"/>
<text text-anchor="middle" x="828.61" y="-451.61" font-family="Avenir Next, Helvetica" font-size="25.00" fill="#333333">Cluster</text>
<text text-anchor="middle" x="828.61" y="-423.61" font-family="Avenir Next, Helvetica" font-size="25.00" fill="#333333">Management</text>
</g>
<!-- Kubernetes&#45;&gt;label_cluster_management -->
<g id="Kubernetes&#45;label_cluster_management&#45;edge" class="edge">
<title>Kubernetes&#45;&gt;label_cluster_management</title>
<path fill="none" stroke="darkgreen" d="M711.09,-478.53C718,-476.48 724.86,-474.44 731.58,-472.45"/>
<polygon fill="darkgreen" stroke="darkgreen" points="731.9,-472.35 731.9,-472.35 731.9,-472.35 731.9,-472.35"/>
</g>
<!-- label_cloud_integration -->
<g id="label_cloud_integration" class="node">
<title>label_cloud_integration</title>
<path fill="none" stroke="darkblue" d="M705.91,-816.7C705.91,-816.7 565.91,-816.7 565.91,-816.7 559.91,-816.7 553.91,-810.7 553.91,-804.7 553.91,-804.7 553.91,-728.7 553.91,-728.7 553.91,-722.7 559.91,-716.7 565.91,-716.7 565.91,-716.7 705.91,-716.7 705.91,-716.7 711.91,-716.7 717.91,-722.7 717.91,-728.7 717.91,-728.7 717.91,-804.7 717.91,-804.7 717.91,-810.7 711.91,-816.7 705.91,-816.7"/>
<text text-anchor="middle" x="635.91" y="-774.7" font-family="Avenir Next, Helvetica" font-size="25.00" fill="#333333">Cloud</text>
<text text-anchor="middle" x="635.91" y="-746.7" font-family="Avenir Next, Helvetica" font-size="25.00" fill="#333333">Integration</text>
</g>
<!-- Kubernetes&#45;&gt;label_cloud_integration -->
<g id="Kubernetes&#45;label_cloud_integration&#45;edge" class="edge">
<title>Kubernetes&#45;&gt;label_cloud_integration</title>
<path fill="none" stroke="darkblue" d="M596.12,-632.78C604.8,-662 613.75,-692.13 620.96,-716.39"/>
<polygon fill="darkblue" stroke="darkblue" points="621.05,-716.67 621.05,-716.67 621.05,-716.67 621.05,-716.67"/>
</g>
<!-- label_continuous_deployment -->
<g id="label_continuous_deployment" class="node">
<title>label_continuous_deployment</title>
<path fill="none" stroke="#cd2990" d="M382.6,-453.68C382.6,-453.68 226.6,-453.68 226.6,-453.68 220.6,-453.68 214.6,-447.68 214.6,-441.68 214.6,-441.68 214.6,-365.68 214.6,-365.68 214.6,-359.68 220.6,-353.68 226.6,-353.68 226.6,-353.68 382.6,-353.68 382.6,-353.68 388.6,-353.68 394.6,-359.68 394.6,-365.68 394.6,-365.68 394.6,-441.68 394.6,-441.68 394.6,-447.68 388.6,-453.68 382.6,-453.68"/>
<text text-anchor="middle" x="304.6" y="-411.68" font-family="Avenir Next, Helvetica" font-size="25.00" fill="#333333">Continuous</text>
<text text-anchor="middle" x="304.6" y="-383.68" font-family="Avenir Next, Helvetica" font-size="25.00" fill="#333333">Deployment</text>
</g>
<!-- Kubernetes&#45;&gt;label_continuous_deployment -->
<g id="Kubernetes&#45;label_continuous_deployment&#45;edge" class="edge">
<title>Kubernetes&#45;&gt;label_continuous_deployment</title>
<path fill="none" stroke="#cd2990" d="M429.04,-460.8C417.56,-455.54 406.14,-450.29 395.13,-445.24"/>
<polygon fill="#cd2990" stroke="#cd2990" points="394.87,-445.12 394.87,-445.12 394.87,-445.12 394.87,-445.12"/>
</g>
<!-- label_observability -->
<g id="label_observability" class="node">
<title>label_observability</title>
<path fill="none" stroke="red" d="M705.2,-301.81C705.2,-301.81 539.2,-301.81 539.2,-301.81 533.2,-301.81 527.2,-295.81 527.2,-289.81 527.2,-289.81 527.2,-241.81 527.2,-241.81 527.2,-235.81 533.2,-229.81 539.2,-229.81 539.2,-229.81 705.2,-229.81 705.2,-229.81 711.2,-229.81 717.2,-235.81 717.2,-241.81 717.2,-241.81 717.2,-289.81 717.2,-289.81 717.2,-295.81 711.2,-301.81 705.2,-301.81"/>
<text text-anchor="middle" x="622.2" y="-259.81" font-family="Avenir Next, Helvetica" font-size="25.00" fill="#333333">Observability</text>
</g>
<!-- Kubernetes&#45;&gt;label_observability -->
<g id="Kubernetes&#45;label_observability&#45;edge" class="edge">
<title>Kubernetes&#45;&gt;label_observability</title>
<path fill="none" stroke="red" d="M588.81,-411.38C597.78,-372.24 607.26,-330.93 613.81,-302.36"/>
<polygon fill="red" stroke="red" points="613.89,-302.02 613.89,-302.02 613.89,-302.02 613.89,-302.02"/>
</g>
<!-- label_networking -->
<g id="label_networking" class="node">
<title>label_networking</title>
<path fill="none" stroke="burlywood" d="M890.87,-711.43C890.87,-711.43 743.87,-711.43 743.87,-711.43 737.87,-711.43 731.87,-705.43 731.87,-699.43 731.87,-699.43 731.87,-651.43 731.87,-651.43 731.87,-645.43 737.87,-639.43 743.87,-639.43 743.87,-639.43 890.87,-639.43 890.87,-639.43 896.87,-639.43 902.87,-645.43 902.87,-651.43 902.87,-651.43 902.87,-699.43 902.87,-699.43 902.87,-705.43 896.87,-711.43 890.87,-711.43"/>
<text text-anchor="middle" x="817.37" y="-669.43" font-family="Avenir Next, Helvetica" font-size="25.00" fill="#333333">Networking</text>
</g>
<!-- Kubernetes&#45;&gt;label_networking -->
<g id="Kubernetes&#45;label_networking&#45;edge" class="edge">
<title>Kubernetes&#45;&gt;label_networking</title>
<path fill="none" stroke="burlywood" d="M685.14,-595.8C710.13,-610.85 735.39,-626.06 757.04,-639.1"/>
<polygon fill="burlywood" stroke="burlywood" points="757.29,-639.25 757.29,-639.25 757.29,-639.25 757.29,-639.25"/>
</g>
<!-- label_security__compliance -->
<g id="label_security__compliance" class="node">
<title>label_security__compliance</title>
<path fill="none" stroke="lime" d="M530.27,-793.94C530.27,-793.94 353.27,-793.94 353.27,-793.94 347.27,-793.94 341.27,-787.94 341.27,-781.94 341.27,-781.94 341.27,-705.94 341.27,-705.94 341.27,-699.94 347.27,-693.94 353.27,-693.94 353.27,-693.94 530.27,-693.94 530.27,-693.94 536.27,-693.94 542.27,-699.94 542.27,-705.94 542.27,-705.94 542.27,-781.94 542.27,-781.94 542.27,-787.94 536.27,-793.94 530.27,-793.94"/>
<text text-anchor="middle" x="441.77" y="-751.94" font-family="Avenir Next, Helvetica" font-size="25.00" fill="#333333">Security</text>
<text text-anchor="middle" x="441.77" y="-723.94" font-family="Avenir Next, Helvetica" font-size="25.00" fill="#333333">&amp; Compliance</text>
</g>
<!-- Kubernetes&#45;&gt;label_security__compliance -->
<g id="Kubernetes&#45;label_security__compliance&#45;edge" class="edge">
<title>Kubernetes&#45;&gt;label_security__compliance</title>
<path fill="none" stroke="lime" d="M505.58,-627.68C492.99,-650.6 480.24,-673.84 469.48,-693.46"/>
<polygon fill="lime" stroke="lime" points="469.22,-693.92 469.22,-693.92 469.22,-693.92 469.22,-693.92"/>
</g>
<!-- label_developer_enablement -->
<g id="label_developer_enablement" class="node">
<title>label_developer_enablement</title>
<path fill="none" stroke="aqua" d="M382.68,-672.71C382.68,-672.71 226.68,-672.71 226.68,-672.71 220.68,-672.71 214.68,-666.71 214.68,-660.71 214.68,-660.71 214.68,-584.71 214.68,-584.71 214.68,-578.71 220.68,-572.71 226.68,-572.71 226.68,-572.71 382.68,-572.71 382.68,-572.71 388.68,-572.71 394.68,-578.71 394.68,-584.71 394.68,-584.71 394.68,-660.71 394.68,-660.71 394.68,-666.71 388.68,-672.71 382.68,-672.71"/>
<text text-anchor="middle" x="304.68" y="-630.71" font-family="Avenir Next, Helvetica" font-size="25.00" fill="#333333">Developer</text>
<text text-anchor="middle" x="304.68" y="-602.71" font-family="Avenir Next, Helvetica" font-size="25.00" fill="#333333">Enablement</text>
</g>
<!-- Kubernetes&#45;&gt;label_developer_enablement -->
<g id="Kubernetes&#45;label_developer_enablement&#45;edge" class="edge">
<title>Kubernetes&#45;&gt;label_developer_enablement</title>
<path fill="none" stroke="aqua" d="M422.65,-576.98C413.44,-580.55 404.3,-584.09 395.43,-587.53"/>
<polygon fill="aqua" stroke="aqua" points="395.01,-587.69 395.01,-587.69 395.01,-587.69 395.01,-587.69"/>
</g>
<!-- Rancher -->
<g id="Rancher" class="node">
<title>Rancher</title>
<ellipse fill="none" stroke="darkgreen" cx="1061.08" cy="-397.79" rx="73.58" ry="41.94"/>
<text text-anchor="middle" x="1061.08" y="-394.09" font-family="Times,serif" font-size="14.00">Rancher</text>
</g>
<!-- label_cluster_management&#45;&gt;Rancher -->
<g id="label_cluster_management&#45;Rancher&#45;edge" class="edge">
<title>label_cluster_management&#45;&gt;Rancher</title>
<path fill="none" stroke="darkgreen" d="M925.17,-424.58C943.91,-420.89 963.35,-417.05 981.46,-413.48"/>
<polygon fill="darkgreen" stroke="darkgreen" points="982.24,-416.9 991.38,-411.53 980.89,-410.03 982.24,-416.9"/>
</g>
<!-- AWS -->
<g id="AWS" class="node">
<title>AWS</title>
<ellipse fill="none" stroke="darkblue" cx="639.73" cy="-1004.29" rx="55.31" ry="41.94"/>
<text text-anchor="middle" x="639.73" y="-1000.59" font-family="Times,serif" font-size="14.00">AWS</text>
</g>
<!-- label_cloud_integration&#45;&gt;AWS -->
<g id="label_cloud_integration&#45;AWS&#45;edge" class="edge">
<title>label_cloud_integration&#45;&gt;AWS</title>
<path fill="none" stroke="darkblue" d="M636.72,-816.8C637.36,-856.5 638.24,-911.8 638.89,-952.05"/>
<polygon fill="darkblue" stroke="darkblue" points="635.39,-952.26 639.05,-962.2 642.39,-952.15 635.39,-952.26"/>
</g>
<!-- Helm -->
<g id="Helm" class="node">
<title>Helm</title>
<ellipse fill="none" stroke="#cd2990" cx="58.69" cy="-444.78" rx="58.88" ry="41.94"/>
<text text-anchor="middle" x="58.69" y="-441.08" font-family="Times,serif" font-size="14.00">Helm</text>
</g>
<!-- label_continuous_deployment&#45;&gt;Helm -->
<g id="label_continuous_deployment&#45;Helm&#45;edge" class="edge">
<title>label_continuous_deployment&#45;&gt;Helm</title>
<path fill="none" stroke="#cd2990" d="M214.43,-418.75C185.25,-423.63 153.43,-428.95 126.19,-433.5"/>
<polygon fill="#cd2990" stroke="#cd2990" points="125.28,-430.11 115.99,-435.21 126.44,-437.01 125.28,-430.11"/>
</g>
<!-- Argo -->
<g id="Argo" class="node">
<title>Argo</title>
<ellipse fill="none" stroke="#cd2990" cx="150.62" cy="-246.95" rx="55.31" ry="41.94"/>
<text text-anchor="middle" x="150.62" y="-243.25" font-family="Times,serif" font-size="14.00">Argo</text>
</g>
<!-- label_continuous_deployment&#45;&gt;Argo -->
<g id="label_continuous_deployment&#45;Argo&#45;edge" class="edge">
<title>label_continuous_deployment&#45;&gt;Argo</title>
<path fill="none" stroke="#cd2990" d="M255.45,-353.66C234.6,-332.44 210.61,-308.01 190.84,-287.88"/>
<polygon fill="#cd2990" stroke="#cd2990" points="193.26,-285.36 183.76,-280.68 188.27,-290.27 193.26,-285.36"/>
</g>
<!-- Grafana -->
<g id="Grafana" class="node">
<title>Grafana</title>
<ellipse fill="none" stroke="red" cx="742.66" cy="-67.77" rx="72.25" ry="41.94"/>
<text text-anchor="middle" x="742.66" y="-64.07" font-family="Times,serif" font-size="14.00">Grafana</text>
</g>
<!-- label_observability&#45;&gt;Grafana -->
<g id="label_observability&#45;Grafana&#45;edge" class="edge">
<title>label_observability&#45;&gt;Grafana</title>
<path fill="none" stroke="red" d="M644.29,-229.49C663.7,-197.57 692.09,-150.9 713.39,-115.89"/>
<polygon fill="red" stroke="red" points="716.43,-117.62 718.64,-107.26 710.45,-113.98 716.43,-117.62"/>
</g>
<!-- Loki -->
<g id="Loki" class="node">
<title>Loki</title>
<ellipse fill="none" stroke="red" cx="569.82" cy="-41.72" rx="53.07" ry="41.94"/>
<text text-anchor="middle" x="569.82" y="-38.02" font-family="Times,serif" font-size="14.00">Loki</text>
</g>
<!-- label_observability&#45;&gt;Loki -->
<g id="label_observability&#45;Loki&#45;edge" class="edge">
<title>label_observability&#45;&gt;Loki</title>
<path fill="none" stroke="red" d="M613.78,-229.81C605.12,-192.77 591.56,-134.76 581.79,-92.95"/>
<polygon fill="red" stroke="red" points="585.14,-91.9 579.46,-82.96 578.33,-93.49 585.14,-91.9"/>
</g>
<!-- Tempo -->
<g id="Tempo" class="node">
<title>Tempo</title>
<ellipse fill="none" stroke="red" cx="430.15" cy="-115.63" rx="65.11" ry="41.94"/>
<text text-anchor="middle" x="430.15" y="-111.93" font-family="Times,serif" font-size="14.00">Tempo</text>
</g>
<!-- label_observability&#45;&gt;Tempo -->
<g id="label_observability&#45;Tempo&#45;edge" class="edge">
<title>label_observability&#45;&gt;Tempo</title>
<path fill="none" stroke="red" d="M575.71,-229.45C546.69,-206.76 509.36,-177.57 479.77,-154.43"/>
<polygon fill="red" stroke="red" points="481.67,-151.47 471.64,-148.07 477.36,-156.99 481.67,-151.47"/>
</g>
<!-- Prometheus -->
<g id="Prometheus" class="node">
<title>Prometheus</title>
<ellipse fill="none" stroke="red" cx="858.86" cy="-176.7" rx="92.76" ry="41.94"/>
<text text-anchor="middle" x="858.86" y="-173" font-family="Times,serif" font-size="14.00">Prometheus</text>
</g>
<!-- label_observability&#45;&gt;Prometheus -->
<g id="label_observability&#45;Prometheus&#45;edge" class="edge">
<title>label_observability&#45;&gt;Prometheus</title>
<path fill="none" stroke="red" d="M717.43,-229.95C737.52,-222.39 758.53,-214.48 778.03,-207.13"/>
<polygon fill="red" stroke="red" points="779.35,-210.38 787.47,-203.58 776.88,-203.83 779.35,-210.38"/>
</g>
<!-- Istio -->
<g id="Istio" class="node">
<title>Istio</title>
<ellipse fill="none" stroke="burlywood" cx="934.52" cy="-874.34" rx="53.98" ry="41.94"/>
<text text-anchor="middle" x="934.52" y="-870.64" font-family="Times,serif" font-size="14.00">Istio</text>
</g>
<!-- label_networking&#45;&gt;Istio -->
<g id="label_networking&#45;Istio&#45;edge" class="edge">
<title>label_networking&#45;&gt;Istio</title>
<path fill="none" stroke="burlywood" d="M838.58,-711.46C857.73,-743.97 886.02,-792 906.92,-827.48"/>
<polygon fill="burlywood" stroke="burlywood" points="903.98,-829.38 912.07,-836.22 910.01,-825.83 903.98,-829.38"/>
</g>
<!-- CoreDNS -->
<g id="CoreDNS" class="node">
<title>CoreDNS</title>
<ellipse fill="none" stroke="burlywood" cx="1064.85" cy="-677.77" rx="78.48" ry="41.94"/>
<text text-anchor="middle" x="1064.85" y="-674.07" font-family="Times,serif" font-size="14.00">CoreDNS</text>
</g>
<!-- label_networking&#45;&gt;CoreDNS -->
<g id="label_networking&#45;CoreDNS&#45;edge" class="edge">
<title>label_networking&#45;&gt;CoreDNS</title>
<path fill="none" stroke="burlywood" d="M902.88,-676.24C926.48,-676.46 952.13,-676.7 975.91,-676.93"/>
<polygon fill="burlywood" stroke="burlywood" points="975.95,-680.43 985.98,-677.02 976.01,-673.43 975.95,-680.43"/>
</g>
<!-- Vault -->
<g id="Vault" class="node">
<title>Vault</title>
<ellipse fill="none" stroke="lime" cx="315.86" cy="-956.28" rx="57.05" ry="41.94"/>
<text text-anchor="middle" x="315.86" y="-952.58" font-family="Times,serif" font-size="14.00">Vault</text>
</g>
<!-- label_security__compliance&#45;&gt;Vault -->
<g id="label_security__compliance&#45;Vault&#45;edge" class="edge">
<title>label_security__compliance&#45;&gt;Vault</title>
<path fill="none" stroke="lime" d="M412.09,-793.99C391.47,-828.77 364.16,-874.82 343.9,-908.99"/>
<polygon fill="lime" stroke="lime" points="340.74,-907.46 338.65,-917.84 346.76,-911.03 340.74,-907.46"/>
</g>
<!-- Backstage -->
<g id="Backstage" class="node">
<title>Backstage</title>
<ellipse fill="none" stroke="aqua" cx="99.39" cy="-731.94" rx="83.38" ry="41.94"/>
<text text-anchor="middle" x="99.39" y="-728.24" font-family="Times,serif" font-size="14.00">Backstage</text>
</g>
<!-- label_developer_enablement&#45;&gt;Backstage -->
<g id="label_developer_enablement&#45;Backstage&#45;edge" class="edge">
<title>label_developer_enablement&#45;&gt;Backstage</title>
<path fill="none" stroke="aqua" d="M214.63,-670.62C198.15,-679.39 181.23,-688.39 165.61,-696.71"/>
<polygon fill="aqua" stroke="aqua" points="163.75,-693.73 156.57,-701.51 167.04,-699.91 163.75,-693.73"/>
</g>
</g>
</svg>
