<?xml version="1.0" encoding="UTF-8" standalone="no"?>
<!DOCTYPE svg PUBLIC "-//W3C//DTD SVG 1.1//EN"
 "http://www.w3.org/Graphics/SVG/1.1/DTD/svg11.dtd">
<!-- Generated by graphviz version 9.0.0 (0)
 -->
<!-- Pages: 1 -->
<svg width="1144pt" height="1095pt"
 viewBox="0.00 0.00 1143.57 1094.50" xmlns="http://www.w3.org/2000/svg" xmlns:xlink="http://www.w3.org/1999/xlink">
<g id="interactive.example" class="graph" transform="scale(1 1) rotate(0) translate(36 1058.5)">
<polygon fill="white" stroke="none" points="-36,36 -36,-1058.5 1107.57,-1058.5 1107.57,36 -36,36"/>
<g id="cluster_observability" class="cluster">
<title>cluster_observability</title>
</g>
<g id="cluster_networking" class="cluster">
<title>cluster_networking</title>
</g>
<g id="cluster_cluster_management" class="cluster">
<title>cluster_cluster_management</title>
</g>
<g id="cluster_cloud_integration" class="cluster">
<title>cluster_cloud_integration</title>
</g>
<g id="cluster_continuous_deployment" class="cluster">
<title>cluster_continuous_deployment</title>
</g>
<g id="cluster_security__compliance" class="cluster">
<title>cluster_security__compliance</title>
</g>
<g id="cluster_developer_enablement" class="cluster">
<title>cluster_developer_enablement</title>
</g>
<!-- Kubernetes -->
<g id="Kubernetes" class="node">
<title>Kubernetes</title>
<ellipse fill="none" stroke="black" cx="537.9" cy="-534.81" rx="145.31" ry="113.49"/>
<text text-anchor="middle" x="537.9" y="-529.76" font-family="Times,serif" font-size="14.00">Kubernetes</text>
</g>
<!-- label_cluster_management -->
<g id="label_cluster_management" class="node">
<title>label_cluster_management</title>
<path fill="none" stroke="darkgreen" d="M860.28,-487.28C860.28,-487.28 703.23,-487.28 703.23,-487.28 697.23,-487.28 691.23,-481.28 691.23,-475.28 691.23,-475.28 691.23,-399.98 691.23,-399.98 691.23,-393.98 697.23,-387.98 703.23,-387.98 703.23,-387.98 860.28,-387.98 860.28,-387.98 866.28,-387.98 872.28,-393.98 872.28,-399.98 872.28,-399.98 872.28,-475.28 872.28,-475.28 872.28,-481.28 866.28,-487.28 860.28,-487.28"/>
<text text-anchor="middle" x="781.76" y="-449.13" font-family="Avenir Next, Helvetica" font-size="25.00" fill="#333333">Cluster</text>
<text text-anchor="middle" x="781.76" y="-413.88" font-family="Avenir Next, Helvetica" font-size="25.00" fill="#333333">Management</text>
</g>
<!-- Kubernetes&#45;&gt;label_cluster_management -->
<g id="Kubernetes&#45;label_cluster_management&#45;edge" class="edge">
<title>Kubernetes&#45;&gt;label_cluster_management</title>
<path fill="none" stroke="darkgreen" d="M667.68,-483.09C675.53,-479.96 683.33,-476.85 690.96,-473.81"/>
<polygon fill="darkgreen" stroke="darkgreen" points="690.96,-473.81 690.96,-473.81 690.96,-473.81 690.96,-473.81"/>
</g>
<!-- label_cloud_integration -->
<g id="label_cloud_integration" class="node">
<title>label_cloud_integration</title>
<path fill="none" stroke="darkblue" d="M639.39,-785.33C639.39,-785.33 510.09,-785.33 510.09,-785.33 504.09,-785.33 498.09,-779.33 498.09,-773.33 498.09,-773.33 498.09,-698.03 498.09,-698.03 498.09,-692.03 504.09,-686.03 510.09,-686.03 510.09,-686.03 639.39,-686.03 639.39,-686.03 645.39,-686.03 651.39,-692.03 651.39,-698.03 651.39,-698.03 651.39,-773.33 651.39,-773.33 651.39,-779.33 645.39,-785.33 639.39,-785.33"/>
<text text-anchor="middle" x="574.74" y="-747.18" font-family="Avenir Next, Helvetica" font-size="25.00" fill="#333333">Cloud</text>
<text text-anchor="middle" x="574.74" y="-711.93" font-family="Avenir Next, Helvetica" font-size="25.00" fill="#333333">Integration</text>
</g>
<!-- Kubernetes&#45;&gt;label_cloud_integration -->
<g id="Kubernetes&#45;label_cloud_integration&#45;edge" class="edge">
<title>Kubernetes&#45;&gt;label_cloud_integration</title>
<path fill="none" stroke="darkblue" d="M558.58,-647.58C561.04,-660.99 563.45,-674.11 565.62,-685.95"/>
<polygon fill="darkblue" stroke="darkblue" points="565.62,-685.95 565.62,-685.95 565.62,-685.95 565.62,-685.95"/>
</g>
<!-- label_continuous_deployment -->
<g id="label_continuous_deployment" class="node">
<title>label_continuous_deployment</title>
<path fill="none" stroke="#cd2990" d="M372.52,-439.31C372.52,-439.31 227.47,-439.31 227.47,-439.31 221.47,-439.31 215.47,-433.31 215.47,-427.31 215.47,-427.31 215.47,-352.01 215.47,-352.01 215.47,-346.01 221.47,-340.01 227.47,-340.01 227.47,-340.01 372.52,-340.01 372.52,-340.01 378.52,-340.01 384.52,-346.01 384.52,-352.01 384.52,-352.01 384.52,-427.31 384.52,-427.31 384.52,-433.31 378.52,-439.31 372.52,-439.31"/>
<text text-anchor="middle" x="299.99" y="-401.16" font-family="Avenir Next, Helvetica" font-size="25.00" fill="#333333">Continuous</text>
<text text-anchor="middle" x="299.99" y="-365.91" font-family="Avenir Next, Helvetica" font-size="25.00" fill="#333333">Deployment</text>
</g>
<!-- Kubernetes&#45;&gt;label_continuous_deployment -->
<g id="Kubernetes&#45;label_continuous_deployment&#45;edge" class="edge">
<title>Kubernetes&#45;&gt;label_continuous_deployment</title>
<path fill="none" stroke="#cd2990" d="M423.12,-464.79C409.22,-456.31 395.24,-447.78 381.95,-439.67"/>
<polygon fill="#cd2990" stroke="#cd2990" points="381.95,-439.67 381.95,-439.67 381.95,-439.67 381.95,-439.67"/>
</g>
<!-- label_observability -->
<g id="label_observability" class="node">
<title>label_observability</title>
<path fill="none" stroke="red" d="M669.2,-300.69C669.2,-300.69 513.65,-300.69 513.65,-300.69 507.65,-300.69 501.65,-294.69 501.65,-288.69 501.65,-288.69 501.65,-248.64 501.65,-248.64 501.65,-242.64 507.65,-236.64 513.65,-236.64 513.65,-236.64 669.2,-236.64 669.2,-236.64 675.2,-236.64 681.2,-242.64 681.2,-248.64 681.2,-248.64 681.2,-288.69 681.2,-288.69 681.2,-294.69 675.2,-300.69 669.2,-300.69"/>
<text text-anchor="middle" x="591.42" y="-262.54" font-family="Avenir Next, Helvetica" font-size="25.00" fill="#333333">Observability</text>
</g>
<!-- Kubernetes&#45;&gt;label_observability -->
<g id="Kubernetes&#45;label_observability&#45;edge" class="edge">
<title>Kubernetes&#45;&gt;label_observability</title>
<path fill="none" stroke="red" d="M560.52,-422.33C569.36,-378.35 578.83,-331.29 584.92,-301.01"/>
<polygon fill="red" stroke="red" points="584.92,-301.01 584.92,-301.01 584.92,-301.01 584.92,-301.01"/>
</g>
<!-- label_networking -->
<g id="label_networking" class="node">
<title>label_networking</title>
<path fill="none" stroke="burlywood" d="M842.09,-696.29C842.09,-696.29 704.54,-696.29 704.54,-696.29 698.54,-696.29 692.54,-690.29 692.54,-684.29 692.54,-684.29 692.54,-644.24 692.54,-644.24 692.54,-638.24 698.54,-632.24 704.54,-632.24 704.54,-632.24 842.09,-632.24 842.09,-632.24 848.09,-632.24 854.09,-638.24 854.09,-644.24 854.09,-644.24 854.09,-684.29 854.09,-684.29 854.09,-690.29 848.09,-696.29 842.09,-696.29"/>
<text text-anchor="middle" x="773.31" y="-658.14" font-family="Avenir Next, Helvetica" font-size="25.00" fill="#333333">Networking</text>
</g>
<!-- Kubernetes&#45;&gt;label_networking -->
<g id="Kubernetes&#45;label_networking&#45;edge" class="edge">
<title>Kubernetes&#45;&gt;label_networking</title>
<path fill="none" stroke="burlywood" d="M656.98,-600.3C676.94,-611.27 696.85,-622.22 714.4,-631.87"/>
<polygon fill="burlywood" stroke="burlywood" points="714.4,-631.87 714.4,-631.87 714.4,-631.87 714.4,-631.87"/>
</g>
<!-- label_security__compliance -->
<g id="label_security__compliance" class="node">
<title>label_security__compliance</title>
<path fill="none" stroke="lime" d="M477.61,-786.1C477.61,-786.1 312.31,-786.1 312.31,-786.1 306.31,-786.1 300.31,-780.1 300.31,-774.1 300.31,-774.1 300.31,-698.8 300.31,-698.8 300.31,-692.8 306.31,-686.8 312.31,-686.8 312.31,-686.8 477.61,-686.8 477.61,-686.8 483.61,-686.8 489.61,-692.8 489.61,-698.8 489.61,-698.8 489.61,-774.1 489.61,-774.1 489.61,-780.1 483.61,-786.1 477.61,-786.1"/>
<text text-anchor="middle" x="394.96" y="-747.95" font-family="Avenir Next, Helvetica" font-size="25.00" fill="#333333">Security</text>
<text text-anchor="middle" x="394.96" y="-712.7" font-family="Avenir Next, Helvetica" font-size="25.00" fill="#333333">&amp; Compliance</text>
</g>
<!-- Kubernetes&#45;&gt;label_security__compliance -->
<g id="Kubernetes&#45;label_security__compliance&#45;edge" class="edge">
<title>Kubernetes&#45;&gt;label_security__compliance</title>
<path fill="none" stroke="lime" d="M467.27,-634.45C454.47,-652.51 441.63,-670.62 430.4,-686.46"/>
<polygon fill="lime" stroke="lime" points="430.4,-686.46 430.4,-686.46 430.4,-686.46 430.4,-686.46"/>
</g>
<!-- label_developer_enablement -->
<g id="label_developer_enablement" class="node">
<title>label_developer_enablement</title>
<path fill="none" stroke="aqua" d="M372.51,-631.27C372.51,-631.27 230.46,-631.27 230.46,-631.27 224.46,-631.27 218.46,-625.27 218.46,-619.27 218.46,-619.27 218.46,-543.97 218.46,-543.97 218.46,-537.97 224.46,-531.97 230.46,-531.97 230.46,-531.97 372.51,-531.97 372.51,-531.97 378.51,-531.97 384.51,-537.97 384.51,-543.97 384.51,-543.97 384.51,-619.27 384.51,-619.27 384.51,-625.27 378.51,-631.27 372.51,-631.27"/>
<text text-anchor="middle" x="301.48" y="-593.12" font-family="Avenir Next, Helvetica" font-size="25.00" fill="#333333">Developer</text>
<text text-anchor="middle" x="301.48" y="-557.87" font-family="Avenir Next, Helvetica" font-size="25.00" fill="#333333">Enablement</text>
</g>
<!-- Kubernetes&#45;&gt;label_developer_enablement -->
<g id="Kubernetes&#45;label_developer_enablement&#45;edge" class="edge">
<title>Kubernetes&#45;&gt;label_developer_enablement</title>
<path fill="none" stroke="aqua" d="M396.62,-562.78C392.67,-563.56 388.77,-564.34 384.91,-565.1"/>
<polygon fill="aqua" stroke="aqua" points="384.91,-565.1 384.91,-565.1 384.91,-565.1 384.91,-565.1"/>
</g>
<!-- Rancher -->
<g id="Rancher" class="node">
<title>Rancher</title>
<ellipse fill="none" stroke="darkgreen" cx="985.88" cy="-357.26" rx="62.37" ry="42.21"/>
<text text-anchor="middle" x="985.88" y="-352.21" font-family="Times,serif" font-size="14.00">Rancher</text>
</g>
<!-- label_cluster_management&#45;&gt;Rancher -->
<g id="label_cluster_management&#45;Rancher&#45;edge" class="edge">
<title>label_cluster_management&#45;&gt;Rancher</title>
<path fill="none" stroke="darkgreen" d="M872.77,-401.79C889.1,-395.37 905.8,-388.79 921.2,-382.73"/>
<polygon fill="darkgreen" stroke="darkgreen" points="922.19,-386.1 930.21,-379.18 919.63,-379.59 922.19,-386.1"/>
</g>
<!-- AWS -->
<g id="AWS" class="node">
<title>AWS</title>
<ellipse fill="none" stroke="darkblue" cx="601.55" cy="-980.29" rx="51.76" ry="42.21"/>
<text text-anchor="middle" x="601.55" y="-975.24" font-family="Times,serif" font-size="14.00">AWS</text>
</g>
<!-- label_cloud_integration&#45;&gt;AWS -->
<g id="label_cloud_integration&#45;AWS&#45;edge" class="edge">
<title>label_cloud_integration&#45;&gt;AWS</title>
<path fill="none" stroke="darkblue" d="M580.23,-785.77C584.73,-826.78 591.07,-884.67 595.67,-926.62"/>
<polygon fill="darkblue" stroke="darkblue" points="592.18,-926.94 596.75,-936.5 599.14,-926.18 592.18,-926.94"/>
</g>
<!-- Helm -->
<g id="Helm" class="node">
<title>Helm</title>
<ellipse fill="none" stroke="#cd2990" cx="66.02" cy="-387.21" rx="52.29" ry="42.21"/>
<text text-anchor="middle" x="66.02" y="-382.16" font-family="Times,serif" font-size="14.00">Helm</text>
</g>
<!-- label_continuous_deployment&#45;&gt;Helm -->
<g id="label_continuous_deployment&#45;Helm&#45;edge" class="edge">
<title>label_continuous_deployment&#45;&gt;Helm</title>
<path fill="none" stroke="#cd2990" d="M215.19,-388.77C187.05,-388.48 156.22,-388.15 129.93,-387.88"/>
<polygon fill="#cd2990" stroke="#cd2990" points="130.12,-384.38 120.09,-387.77 130.05,-391.38 130.12,-384.38"/>
</g>
<!-- ArgoCD -->
<g id="ArgoCD" class="node">
<title>ArgoCD</title>
<ellipse fill="none" stroke="#cd2990" cx="165.78" cy="-213.42" rx="63.43" ry="42.21"/>
<text text-anchor="middle" x="165.78" y="-208.37" font-family="Times,serif" font-size="14.00">ArgoCD</text>
</g>
<!-- label_continuous_deployment&#45;&gt;ArgoCD -->
<g id="label_continuous_deployment&#45;ArgoCD&#45;edge" class="edge">
<title>label_continuous_deployment&#45;&gt;ArgoCD</title>
<path fill="none" stroke="#cd2990" d="M261.89,-339.63C242.92,-314.72 220.13,-284.79 201.5,-260.33"/>
<polygon fill="#cd2990" stroke="#cd2990" points="204.34,-258.28 195.5,-252.45 198.77,-262.52 204.34,-258.28"/>
</g>
<!-- Grafana -->
<g id="Grafana" class="node">
<title>Grafana</title>
<ellipse fill="none" stroke="red" cx="709.01" cy="-68.91" rx="61.31" ry="42.21"/>
<text text-anchor="middle" x="709.01" y="-63.86" font-family="Times,serif" font-size="14.00">Grafana</text>
</g>
<!-- label_observability&#45;&gt;Grafana -->
<g id="label_observability&#45;Grafana&#45;edge" class="edge">
<title>label_observability&#45;&gt;Grafana</title>
<path fill="none" stroke="red" d="M610.32,-236.57C629.21,-204.48 658.5,-154.7 680.28,-117.72"/>
<polygon fill="red" stroke="red" points="683.1,-119.82 685.15,-109.43 677.06,-116.27 683.1,-119.82"/>
</g>
<!-- Loki -->
<g id="Loki" class="node">
<title>Loki</title>
<ellipse fill="none" stroke="red" cx="546.97" cy="-42.21" rx="48.58" ry="42.21"/>
<text text-anchor="middle" x="546.97" y="-37.16" font-family="Times,serif" font-size="14.00">Loki</text>
</g>
<!-- label_observability&#45;&gt;Loki -->
<g id="label_observability&#45;Loki&#45;edge" class="edge">
<title>label_observability&#45;&gt;Loki</title>
<path fill="none" stroke="red" d="M585.05,-236.22C577.85,-199.51 566,-139.16 557.43,-95.51"/>
<polygon fill="red" stroke="red" points="560.87,-94.86 555.51,-85.72 554,-96.21 560.87,-94.86"/>
</g>
<!-- Tempo -->
<g id="Tempo" class="node">
<title>Tempo</title>
<ellipse fill="none" stroke="red" cx="412.12" cy="-107.64" rx="58.12" ry="42.21"/>
<text text-anchor="middle" x="412.12" y="-102.59" font-family="Times,serif" font-size="14.00">Tempo</text>
</g>
<!-- label_observability&#45;&gt;Tempo -->
<g id="label_observability&#45;Tempo&#45;edge" class="edge">
<title>label_observability&#45;&gt;Tempo</title>
<path fill="none" stroke="red" d="M555.57,-236.47C527.26,-211.05 487.61,-175.43 457.16,-148.09"/>
<polygon fill="red" stroke="red" points="459.74,-145.7 449.96,-141.63 455.06,-150.91 459.74,-145.7"/>
</g>
<!-- Prometheus -->
<g id="Prometheus" class="node">
<title>Prometheus</title>
<ellipse fill="none" stroke="red" cx="817.81" cy="-172.47" rx="76.16" ry="42.21"/>
<text text-anchor="middle" x="817.81" y="-167.42" font-family="Times,serif" font-size="14.00">Prometheus</text>
</g>
<!-- label_observability&#45;&gt;Prometheus -->
<g id="label_observability&#45;Prometheus&#45;edge" class="edge">
<title>label_observability&#45;&gt;Prometheus</title>
<path fill="none" stroke="red" d="M667.75,-236.23C693.25,-225.4 721.54,-213.37 746.63,-202.71"/>
<polygon fill="red" stroke="red" points="747.94,-205.96 755.78,-198.83 745.2,-199.51 747.94,-205.96"/>
</g>
<!-- Istio -->
<g id="Istio" class="node">
<title>Istio</title>
<ellipse fill="none" stroke="burlywood" cx="839.97" cy="-885.38" rx="47.52" ry="42.21"/>
<text text-anchor="middle" x="839.97" y="-880.33" font-family="Times,serif" font-size="14.00">Istio</text>
</g>
<!-- label_networking&#45;&gt;Istio -->
<g id="label_networking&#45;Istio&#45;edge" class="edge">
<title>label_networking&#45;&gt;Istio</title>
<path fill="none" stroke="burlywood" d="M783.01,-696.41C793.81,-732.26 811.45,-790.76 824.24,-833.19"/>
<polygon fill="burlywood" stroke="burlywood" points="820.87,-834.13 827.11,-842.7 827.57,-832.11 820.87,-834.13"/>
</g>
<!-- CoreDNS -->
<g id="CoreDNS" class="node">
<title>CoreDNS</title>
<ellipse fill="none" stroke="burlywood" cx="976.05" cy="-769.63" rx="68.2" ry="42.21"/>
<text text-anchor="middle" x="976.05" y="-764.58" font-family="Times,serif" font-size="14.00">CoreDNS</text>
</g>
<!-- label_networking&#45;&gt;CoreDNS -->
<g id="label_networking&#45;CoreDNS&#45;edge" class="edge">
<title>label_networking&#45;&gt;CoreDNS</title>
<path fill="none" stroke="burlywood" d="M835.8,-696.73C860.54,-709.59 888.93,-724.35 913.67,-737.2"/>
<polygon fill="burlywood" stroke="burlywood" points="911.84,-740.2 922.32,-741.7 915.06,-733.99 911.84,-740.2"/>
</g>
<!-- Cilium -->
<g id="Cilium" class="node">
<title>Cilium</title>
<ellipse fill="none" stroke="burlywood" cx="1013.97" cy="-594.86" rx="57.59" ry="42.21"/>
<text text-anchor="middle" x="1013.97" y="-589.81" font-family="Times,serif" font-size="14.00">Cilium</text>
</g>
<!-- label_networking&#45;&gt;Cilium -->
<g id="label_networking&#45;Cilium&#45;edge" class="edge">
<title>label_networking&#45;&gt;Cilium</title>
<path fill="none" stroke="burlywood" d="M854.46,-640.86C885.31,-631.96 920.02,-621.95 949.17,-613.55"/>
<polygon fill="burlywood" stroke="burlywood" points="949.96,-616.96 958.6,-610.83 948.02,-610.24 949.96,-616.96"/>
</g>
<!-- Vault -->
<g id="Vault" class="node">
<title>Vault</title>
<ellipse fill="none" stroke="lime" cx="176.99" cy="-851.6" rx="50.7" ry="42.21"/>
<text text-anchor="middle" x="176.99" y="-846.55" font-family="Times,serif" font-size="14.00">Vault</text>
</g>
<!-- label_security__compliance&#45;&gt;Vault -->
<g id="label_security__compliance&#45;Vault&#45;edge" class="edge">
<title>label_security__compliance&#45;&gt;Vault</title>
<path fill="none" stroke="lime" d="M300.31,-786.46C276.31,-799.13 251.38,-812.31 230.26,-823.46"/>
<polygon fill="lime" stroke="lime" points="228.76,-820.29 221.56,-828.06 232.03,-826.48 228.76,-820.29"/>
</g>
<!-- OPA -->
<g id="OPA" class="node">
<title>OPA</title>
<ellipse fill="none" stroke="lime" cx="352.75" cy="-969.48" rx="49.64" ry="42.21"/>
<text text-anchor="middle" x="352.75" y="-964.43" font-family="Times,serif" font-size="14.00">OPA</text>
</g>
<!-- label_security__compliance&#45;&gt;OPA -->
<g id="label_security__compliance&#45;OPA&#45;edge" class="edge">
<title>label_security__compliance&#45;&gt;OPA</title>
<path fill="none" stroke="lime" d="M385.91,-786.44C378.98,-824.66 369.46,-877.25 362.39,-916.25"/>
<polygon fill="lime" stroke="lime" points="358.99,-915.42 360.65,-925.88 365.87,-916.67 358.99,-915.42"/>
</g>
<!-- Backstage -->
<g id="Backstage" class="node">
<title>Backstage</title>
<ellipse fill="none" stroke="aqua" cx="69.79" cy="-625.46" rx="69.79" ry="42.21"/>
<text text-anchor="middle" x="69.79" y="-620.41" font-family="Times,serif" font-size="14.00">Backstage</text>
</g>
<!-- label_developer_enablement&#45;&gt;Backstage -->
<g id="label_developer_enablement&#45;Backstage&#45;edge" class="edge">
<title>label_developer_enablement&#45;&gt;Backstage</title>
<path fill="none" stroke="aqua" d="M218.16,-597.38C195.3,-601.71 170.6,-606.38 148.03,-610.65"/>
<polygon fill="aqua" stroke="aqua" points="147.46,-607.2 138.28,-612.5 148.76,-614.08 147.46,-607.2"/>
</g>
</g>
</svg>
