<?xml version="1.0" ?><!DOCTYPE svg  PUBLIC '-//W3C//DTD SVG 1.1//EN'  'http://www.w3.org/Graphics/SVG/1.1/DTD/svg11.dtd'><!-- Generated by graphviz version 2.43.0 (0)
 --><!-- Title: %3 Pages: 1 --><svg xmlns="http://www.w3.org/2000/svg" xmlns:xlink="http://www.w3.org/1999/xlink" width="356pt" height="535pt" viewBox="0.00 0.00 356.26 534.91">
<g id="minimal.example" class="graph" transform="scale(1 1) rotate(0) translate(36 498.91)">
<title>%3</title>
<polygon fill="white" stroke="transparent" points="-36,36 -36,-498.91 320.26,-498.91 320.26,36 -36,36"/>
<g id="cluster_cloud_integration" class="cluster">
<title>cluster_cloud_integration</title>
</g>
<g id="cluster_cluster_management" class="cluster">
<title>cluster_cluster_management</title>
</g>
<!-- Kubernetes -->

<!-- label_cloud_integration -->
<g id="label_cloud_integration" class="node">
<title>label_cloud_integration</title>
<path fill="none" stroke="darkgreen" d="M166.13,-163.18C166.13,-163.18 116.13,-163.18 116.13,-163.18 110.13,-163.18 104.13,-157.18 104.13,-151.18 104.13,-151.18 104.13,-125.18 104.13,-125.18 104.13,-119.18 110.13,-113.18 116.13,-113.18 116.13,-113.18 166.13,-113.18 166.13,-113.18 172.13,-113.18 178.13,-119.18 178.13,-125.18 178.13,-125.18 178.13,-151.18 178.13,-151.18 178.13,-157.18 172.13,-163.18 166.13,-163.18"/>
<text text-anchor="middle" x="141.13" y="-141.18" font-family="Avenir Next, Helvetica" font-size="10.00" fill="#333333">Cloud</text>
<text text-anchor="middle" x="141.13" y="-130.18" font-family="Avenir Next, Helvetica" font-size="10.00" fill="#333333">Integration</text>
</g>
<!-- Kubernetes&#45;&gt;label_cloud_integration -->
<g id="Kubernetes-label_cloud_integration-edge" class="edge">
<title>Kubernetes-&gt;label_cloud_integration</title>
<path fill="none" stroke="darkgreen" d="M138.58,-204.26C139.08,-191.2 139.66,-176.13 140.14,-163.68"/>
<polygon fill="darkgreen" stroke="darkgreen" points="140.16,-163.39 140.16,-163.39 140.16,-163.39 140.16,-163.39"/>
</g>
<!-- label_cluster_management -->
<g id="label_cluster_management" class="node">
<title>label_cluster_management</title>
<path fill="none" stroke="darkblue" d="M183.63,-355.4C183.63,-355.4 122.63,-355.4 122.63,-355.4 116.63,-355.4 110.63,-349.4 110.63,-343.4 110.63,-343.4 110.63,-317.4 110.63,-317.4 110.63,-311.4 116.63,-305.4 122.63,-305.4 122.63,-305.4 183.63,-305.4 183.63,-305.4 189.63,-305.4 195.63,-311.4 195.63,-317.4 195.63,-317.4 195.63,-343.4 195.63,-343.4 195.63,-349.4 189.63,-355.4 183.63,-355.4"/>
<text text-anchor="middle" x="153.13" y="-333.4" font-family="Avenir Next, Helvetica" font-size="10.00" fill="#333333">Cluster</text>
<text text-anchor="middle" x="153.13" y="-322.4" font-family="Avenir Next, Helvetica" font-size="10.00" fill="#333333">Management</text>
</g>
<!-- Kubernetes&#45;&gt;label_cluster_management -->
<g id="Kubernetes-label_cluster_management-edge" class="edge">
<title>Kubernetes-&gt;label_cluster_management</title>
<path fill="none" stroke="darkblue" d="M142.42,-265.35C144.53,-278.14 146.95,-292.83 148.96,-305.02"/>
<polygon fill="darkblue" stroke="darkblue" points="149,-305.31 149,-305.31 149,-305.31 149,-305.31"/>
</g>
<!-- Amazon Web Services -->

<!-- label_cloud_integration&#45;&gt;Amazon Web Services -->
<g id="label_cloud_integration-Amazon Web Services-edge" class="edge">
<title>label_cloud_integration-&gt;Amazon Web Services</title>
<path fill="none" stroke="darkgreen" d="M141.39,-113.09C141.45,-107.15 141.52,-100.61 141.59,-93.96"/>
<polygon fill="darkgreen" stroke="darkgreen" points="145.09,-93.53 141.69,-83.5 138.09,-93.46 145.09,-93.53"/>
</g>
<!-- Rancher -->

<!-- label_cluster_management&#45;&gt;Rancher -->
<g id="label_cluster_management-Rancher-edge" class="edge">
<title>label_cluster_management-&gt;Rancher</title>
<path fill="none" stroke="darkblue" d="M162.49,-355.69C164.19,-360.3 166.02,-365.24 167.89,-370.29"/>
<polygon fill="darkblue" stroke="darkblue" points="164.74,-371.86 171.49,-380.03 171.3,-369.44 164.74,-371.86"/>
</g>
<svg xmlns="http://www.w3.org/2000/svg" role="img" viewBox="0.03 -8.96 362.18 282.43" id="kubernetes-logo" transform="translate(77.4, -264.85) scale(1)" width="120" height="60"><defs><style>.kubernetes-cls-1{fill:#fff}.kubernetes-cls-2{fill:#326ce5}</style></defs><g id="kubernetes-its-pronounced"><g id="kubernetes-kyoob-cuttle"><path id="kubernetes-kkkkkkk" d="M16.841 243.586c.952-1.07 1.904-2.141 2.974-3.212q1.493-1.66 2.975-3.33c.951-1.191 1.903-2.262 2.737-3.214s1.665-1.903 2.26-2.617h11.54c-2.26 2.617-4.522 5.235-6.781 7.614q-3.213 3.57-7.138 7.495a48.052 48.052 0 0 1 4.045 4.284c1.427 1.665 2.736 3.33 4.045 4.995a50.807 50.807 0 0 1 3.568 5.236c1.07 1.784 2.024 3.33 2.737 4.759H28.62c-.715-1.19-1.547-2.38-2.38-3.69a43.32 43.32 0 0 0-2.856-4.162 34.21 34.21 0 0 0-3.211-4.045 20.442 20.442 0 0 0-3.213-3.213v14.99H7.205v-49.134l9.755-1.547v28.791"/><path id="kubernetes-uuuuuuu" d="M73.709 264.406a46.294 46.294 0 0 1-6.424 1.309 45.986 45.986 0 0 1-8.21.594 19.17 19.17 0 0 1-7.375-1.189 10.928 10.928 0 0 1-6.9-8.328 27.977 27.977 0 0 1-.715-6.425v-19.154h9.757v17.965c0 3.093.357 5.354 1.19 6.782s2.378 2.141 4.639 2.141a15.169 15.169 0 0 0 2.26-.119c.833-.119 1.429-.119 2.142-.238v-26.53h9.755l-.119 33.192"/><path id="kubernetes-bbbbbbb" d="M105 248.107c0-6.305-2.262-9.398-6.902-9.398a12.706 12.706 0 0 0-2.974.356 8.99 8.99 0 0 0-2.379.952v17.727c.475.119 1.07.119 1.784.238.714 0 1.546.12 2.38.12a7.366 7.366 0 0 0 6.068-2.738 12.2 12.2 0 0 0 2.022-7.257m9.874.238a21.543 21.543 0 0 1-1.19 7.496 15.313 15.313 0 0 1-3.45 5.71 18.297 18.297 0 0 1-5.591 3.688 21.774 21.774 0 0 1-7.615 1.19c-1.189 0-2.379-.12-3.688-.238s-2.497-.238-3.806-.358c-1.19-.118-2.38-.356-3.57-.595a15.037 15.037 0 0 1-2.974-.832V216.34l9.756-1.546v17.132a16.617 16.617 0 0 1 3.45-1.07 19.691 19.691 0 0 1 3.807-.357 15.074 15.074 0 0 1 6.424 1.308 12.884 12.884 0 0 1 4.76 3.57 14.348 14.348 0 0 1 2.855 5.71 33.785 33.785 0 0 1 .832 7.257"/><path id="kubernetes-eeeeeee0" d="M120.704 248.702a20.303 20.303 0 0 1 1.427-7.97 18.206 18.206 0 0 1 3.689-5.712 13.866 13.866 0 0 1 5.233-3.45 15.9 15.9 0 0 1 6.187-1.19 15.227 15.227 0 0 1 11.54 4.521c2.855 2.974 4.282 7.378 4.282 13.087a10.887 10.887 0 0 1-.118 1.904c0 .595-.119 1.189-.119 1.784h-22.13a6.522 6.522 0 0 0 2.856 4.759 11.32 11.32 0 0 0 6.662 1.784 25.212 25.212 0 0 0 5.235-.475 21.342 21.342 0 0 0 4.283-1.19l1.308 7.97c-.476.239-1.19.477-2.14.833a11.994 11.994 0 0 1-2.976.596 26.855 26.855 0 0 1-3.45.475c-1.19.12-2.497.238-3.688.238a20.92 20.92 0 0 1-8.09-1.427 17.517 17.517 0 0 1-5.71-3.688 17.172 17.172 0 0 1-3.33-5.71 27.944 27.944 0 0 1-.954-7.139m22.962-3.807a7.692 7.692 0 0 0-.476-2.38 7.232 7.232 0 0 0-1.07-2.141 5.684 5.684 0 0 0-4.76-2.142 7.188 7.188 0 0 0-2.855.595 4.732 4.732 0 0 0-1.903 1.428 6.24 6.24 0 0 0-1.19 2.142 17.396 17.396 0 0 0-.595 2.38h12.85"/><path id="kubernetes-rrrrrrr" d="M181.26 239.78a17.875 17.875 0 0 0-3.094-.596 19.688 19.688 0 0 0-3.807-.357 20.977 20.977 0 0 0-2.26.238 18.687 18.687 0 0 0-1.904.357v26.293h-9.756v-32.717a50.606 50.606 0 0 1 6.186-1.666 33.468 33.468 0 0 1 7.971-.832 11.58 11.58 0 0 1 1.904.118 16.256 16.256 0 0 1 2.26.238c.715.12 1.428.238 2.261.357.713.12 1.428.358 1.903.476l-1.665 8.09"/><path id="kubernetes-nnnnnnn" d="M188.16 232.403a57.524 57.524 0 0 1 14.633-1.903 18.147 18.147 0 0 1 7.257 1.189 10.191 10.191 0 0 1 4.64 3.212 13.897 13.897 0 0 1 2.38 4.997 26.54 26.54 0 0 1 .713 6.424v19.393h-9.756v-18.201c0-3.094-.356-5.354-1.19-6.663s-2.379-1.904-4.64-1.904a15.17 15.17 0 0 0-2.26.12 11.787 11.787 0 0 0-2.14.237v26.531h-9.638v-33.43"/><path id="kubernetes-eeeeeee1" d="M225.04 248.702a20.301 20.301 0 0 1 1.427-7.97 18.206 18.206 0 0 1 3.69-5.712 13.866 13.866 0 0 1 5.234-3.45 15.9 15.9 0 0 1 6.187-1.19 15.227 15.227 0 0 1 11.54 4.521c2.854 2.974 4.282 7.378 4.282 13.087a10.884 10.884 0 0 1-.119 1.904c0 .595-.12 1.189-.12 1.784h-22.127a6.522 6.522 0 0 0 2.856 4.759 11.32 11.32 0 0 0 6.66 1.784 25.213 25.213 0 0 0 5.237-.475 21.34 21.34 0 0 0 4.282-1.19l1.309 7.97c-.476.239-1.19.477-2.142.833a11.992 11.992 0 0 1-2.974.596 26.86 26.86 0 0 1-3.45.475c-1.19.12-2.499.238-3.688.238a20.92 20.92 0 0 1-8.09-1.427 17.516 17.516 0 0 1-5.71-3.688 17.172 17.172 0 0 1-3.332-5.71 27.938 27.938 0 0 1-.952-7.139m22.961-3.807a7.693 7.693 0 0 0-.475-2.38 7.233 7.233 0 0 0-1.071-2.141 5.684 5.684 0 0 0-4.76-2.142 7.188 7.188 0 0 0-2.855.595 4.732 4.732 0 0 0-1.903 1.428 6.24 6.24 0 0 0-1.19 2.142 17.388 17.388 0 0 0-.594 2.38h12.848"/><path id="kubernetes-ttttttt" d="M264.657 222.647l9.756-1.546v10.112h11.66v8.09h-11.66v12.135a9.566 9.566 0 0 0 1.07 4.878c.715 1.19 2.261 1.785 4.403 1.785a29.167 29.167 0 0 0 3.212-.238 19.344 19.344 0 0 0 3.093-.833l1.427 7.614a18.948 18.948 0 0 1-3.926 1.19 22.872 22.872 0 0 1-5.354.475 18.18 18.18 0 0 1-6.66-1.07 11.01 11.01 0 0 1-4.165-2.975 11.804 11.804 0 0 1-2.261-4.758 30.834 30.834 0 0 1-.594-6.068v-28.791"/><path id="kubernetes-eeeeeee2" d="M291.069 248.702a20.3 20.3 0 0 1 1.428-7.97 18.206 18.206 0 0 1 3.688-5.712 13.866 13.866 0 0 1 5.234-3.45 15.9 15.9 0 0 1 6.187-1.19 15.227 15.227 0 0 1 11.54 4.521c2.856 2.974 4.283 7.378 4.283 13.087a10.885 10.885 0 0 1-.12 1.904c0 .595-.119 1.189-.119 1.784h-22.128a6.522 6.522 0 0 0 2.856 4.759 11.32 11.32 0 0 0 6.661 1.784 25.213 25.213 0 0 0 5.236-.475 21.34 21.34 0 0 0 4.282-1.19l1.31 7.97c-.476.239-1.19.477-2.143.833a11.992 11.992 0 0 1-2.974.596 26.856 26.856 0 0 1-3.45.475c-1.19.12-2.497.238-3.688.238a20.92 20.92 0 0 1-8.09-1.427 17.516 17.516 0 0 1-5.71-3.688 17.172 17.172 0 0 1-3.33-5.71 23.525 23.525 0 0 1-.953-7.139m22.843-3.807a7.692 7.692 0 0 0-.477-2.38 7.232 7.232 0 0 0-1.07-2.141 5.684 5.684 0 0 0-4.759-2.142 7.188 7.188 0 0 0-2.856.595 4.732 4.732 0 0 0-1.904 1.428 6.24 6.24 0 0 0-1.188 2.142 17.391 17.391 0 0 0-.596 2.38h12.85"/><path id="kubernetes-sssssss" d="M340.68 258.576a9.776 9.776 0 0 0 3.807-.475 2.084 2.084 0 0 0 1.07-2.023c0-.833-.475-1.427-1.427-2.022a22.567 22.567 0 0 0-4.403-2.023c-1.546-.595-2.974-1.19-4.162-1.785a11.894 11.894 0 0 1-3.095-2.141 9.304 9.304 0 0 1-2.022-3.094 11.526 11.526 0 0 1-.714-4.282 9.052 9.052 0 0 1 3.569-7.614c2.38-1.904 5.711-2.856 9.875-2.856a33.842 33.842 0 0 1 6.068.595 21.997 21.997 0 0 1 4.52 1.191l-1.665 7.614c-1.19-.358-2.38-.715-3.69-1.071a16.645 16.645 0 0 0-4.4-.477c-3.094 0-4.522.833-4.522 2.498a3.474 3.474 0 0 0 .238 1.072 1.998 1.998 0 0 0 .833.952c.357.238.952.594 1.547.951.714.357 1.546.595 2.617 1.071a39.243 39.243 0 0 1 5.354 2.379 8.882 8.882 0 0 1 3.213 2.499 6.214 6.214 0 0 1 1.665 2.974 12.346 12.346 0 0 1 .476 3.807 8.868 8.868 0 0 1-3.808 7.734c-2.498 1.784-6.067 2.616-10.826 2.616a27.502 27.502 0 0 1-7.613-.832 21.717 21.717 0 0 1-4.164-1.31l1.665-7.97a36.36 36.36 0 0 0 5.116 1.546 21.894 21.894 0 0 0 4.877.476"/></g></g><path d="M76.523 126.992h10.619v8.432h-10.62z" class="kubernetes-cls-1"/><path d="M200.688 120.047a3.59 3.59 0 0 0-.855-.065 3.685 3.685 0 0 0-1.425.37 3.725 3.725 0 0 0-1.803 4.825l-.026.037 8.528 20.603a43.53 43.53 0 0 0 17.595-22.102l-21.976-3.714zm-34.194 2.92a3.72 3.72 0 0 0-3.568-2.894 3.656 3.656 0 0 0-.733.065l-.037-.045-21.785 3.698a43.695 43.695 0 0 0 17.54 21.946l8.442-20.399-.066-.08a3.683 3.683 0 0 0 .207-2.291zm18.245 8a3.718 3.718 0 0 0-6.557.008h-.018l-10.713 19.372a43.637 43.637 0 0 0 23.815 1.225q2.197-.5 4.292-1.199l-10.738-19.407zm33.914-45L202.17 100.72l.009.047a3.725 3.725 0 0 0 1.46 6.395l.02.089 21.35 6.15a44.278 44.278 0 0 0-6.356-27.432zM188.03 87.62a3.725 3.725 0 0 0 5.913 2.84l.065.028 18.036-12.789a43.85 43.85 0 0 0-25.287-12.19l1.253 22.105zm-19.1 2.922a3.72 3.72 0 0 0 5.904-2.85l.092-.044 1.253-22.139a44.68 44.68 0 0 0-4.501.775 43.467 43.467 0 0 0-20.937 11.409l18.154 12.869zm-9.678 16.728a3.72 3.72 0 0 0 1.462-6.396l.018-.087-16.574-14.825a43.454 43.454 0 0 0-6.168 27.511l21.245-6.13zm16.098 6.512l6.114 2.94 6.096-2.933 1.514-6.582-4.219-5.276h-6.79l-4.231 5.268z" class="kubernetes-cls-2"/><path d="M282.538 126.748l-17.422-75.675A13.602 13.602 0 0 0 257.823 42L187.302 8.33a13.589 13.589 0 0 0-11.705 0L105.09 42.018a13.598 13.598 0 0 0-7.295 9.072l-17.394 75.673a13.315 13.315 0 0 0-.004 5.81 13.505 13.505 0 0 0 .491 1.718 13.101 13.101 0 0 0 1.343 2.726c.239.365.491.72.765 1.064l48.804 60.678c.213.264.448.505.681.75a13.423 13.423 0 0 0 2.574 2.133 13.924 13.924 0 0 0 3.857 1.677 13.298 13.298 0 0 0 3.43.473h.759l77.504-.018a12.996 12.996 0 0 0 1.41-.083 13.47 13.47 0 0 0 1.989-.378 13.87 13.87 0 0 0 1.381-.442c.353-.135.705-.27 1.045-.433a13.941 13.941 0 0 0 1.479-.822 13.304 13.304 0 0 0 3.237-2.865l1.488-1.85 47.299-58.84a13.185 13.185 0 0 0 2.108-3.785 13.67 13.67 0 0 0 .5-1.724 13.282 13.282 0 0 0-.004-5.809zm-73.147 29.432a14.515 14.515 0 0 0 .703 1.703 3.314 3.314 0 0 0-.327 2.49 39.373 39.373 0 0 0 3.742 6.7 35.065 35.065 0 0 1 2.263 3.364c.17.315.392.803.553 1.136a4.24 4.24 0 1 1-7.63 3.607c-.161-.33-.385-.77-.522-1.082a35.275 35.275 0 0 1-1.225-3.868 39.305 39.305 0 0 0-2.896-7.097 3.335 3.335 0 0 0-2.154-1.307c-.135-.233-.635-1.149-.903-1.623a54.617 54.617 0 0 1-38.948-.1l-.955 1.731a3.429 3.429 0 0 0-1.819.886 29.518 29.518 0 0 0-3.268 7.582 34.898 34.898 0 0 1-1.218 3.868c-.135.31-.361.744-.522 1.073v.009l-.007.008a4.238 4.238 0 1 1-7.619-3.616c.159-.335.372-.82.54-1.135a35.178 35.178 0 0 1 2.262-3.373 41.227 41.227 0 0 0 3.82-6.866 4.188 4.188 0 0 0-.376-2.387l.768-1.84a54.922 54.922 0 0 1-24.338-30.387l-1.839.313a4.68 4.68 0 0 0-2.428-.855 39.525 39.525 0 0 0-7.356 2.165 35.585 35.585 0 0 1-3.787 1.45c-.305.084-.745.168-1.093.244-.028.01-.052.022-.08.029a.603.603 0 0 1-.065.006 4.236 4.236 0 1 1-1.874-8.224l.061-.015.037-.01c.353-.083.805-.2 1.127-.262a35.268 35.268 0 0 1 4.05-.326 39.39 39.39 0 0 0 7.564-1.242 5.835 5.835 0 0 0 1.814-1.83l1.767-.516a54.613 54.613 0 0 1 8.613-38.073l-1.353-1.206a4.688 4.688 0 0 0-.848-2.436 39.366 39.366 0 0 0-6.277-4.41 35.251 35.251 0 0 1-3.499-2.046c-.256-.191-.596-.478-.874-.704l-.063-.044a4.473 4.473 0 0 1-1.038-6.222 4.066 4.066 0 0 1 3.363-1.488 5.03 5.03 0 0 1 2.942 1.11c.287.225.68.526.935.745a35.253 35.253 0 0 1 2.78 2.95 39.384 39.384 0 0 0 5.69 5.142 3.333 3.333 0 0 0 2.507.243q.754.55 1.522 1.082a54.289 54.289 0 0 1 27.577-15.754 55.052 55.052 0 0 1 7.63-1.173l.1-1.784a4.601 4.601 0 0 0 1.37-2.184 39.476 39.476 0 0 0-.47-7.654 35.468 35.468 0 0 1-.576-4.014c-.011-.307.006-.731.01-1.081 0-.04-.01-.079-.01-.118a4.242 4.242 0 1 1 8.441-.004c0 .37.022.861.009 1.2a35.111 35.111 0 0 1-.579 4.013 39.533 39.533 0 0 0-.478 7.656 3.344 3.344 0 0 0 1.379 2.11c.015.305.065 1.323.102 1.884A55.309 55.309 0 0 1 221.15 71.25l1.606-1.147a4.69 4.69 0 0 0 2.56-.278 39.53 39.53 0 0 0 5.69-5.148 35.004 35.004 0 0 1 2.787-2.95c.259-.222.65-.52.936-.746a4.242 4.242 0 1 1 5.258 6.598c-.283.229-.657.548-.929.75a35.096 35.096 0 0 1-3.507 2.046 39.495 39.495 0 0 0-6.277 4.41 3.337 3.337 0 0 0-.792 2.39c-.235.216-1.06.947-1.497 1.343a54.837 54.837 0 0 1 8.792 37.983l1.704.496a4.745 4.745 0 0 0 1.82 1.831 39.464 39.464 0 0 0 7.568 1.245 35.64 35.64 0 0 1 4.046.324c.355.065.868.207 1.23.29a4.236 4.236 0 1 1-1.878 8.223l-.061-.008c-.028-.007-.054-.022-.083-.029-.348-.076-.785-.152-1.09-.232a35.14 35.14 0 0 1-3.785-1.462 39.477 39.477 0 0 0-7.363-2.165 3.337 3.337 0 0 0-2.362.877q-.9-.171-1.804-.316a54.92 54.92 0 0 1-24.328 30.605z" class="kubernetes-cls-2"/><path d="M291.737 128.689L272.73 46.128a14.838 14.838 0 0 0-7.958-9.9L187.837-.502a14.825 14.825 0 0 0-12.771 0L98.138 36.25a14.838 14.838 0 0 0-7.961 9.895L71.203 128.71a14.668 14.668 0 0 0 1.995 11.185c.261.4.538.788.838 1.162l53.246 66.205a14.98 14.98 0 0 0 11.499 5.487l85.387-.02a14.986 14.986 0 0 0 11.5-5.48l53.227-66.211a14.72 14.72 0 0 0 2.842-12.347zm-9.197 3.866a13.677 13.677 0 0 1-.498 1.723 13.184 13.184 0 0 1-2.11 3.785l-47.299 58.838-1.486 1.852a13.305 13.305 0 0 1-3.24 2.865 13.943 13.943 0 0 1-1.474.822q-.513.237-1.045.431a13.865 13.865 0 0 1-1.383.444 13.472 13.472 0 0 1-1.989.379 12.988 12.988 0 0 1-1.41.082l-77.504.018h-.76a13.298 13.298 0 0 1-3.429-.472 13.924 13.924 0 0 1-3.855-1.678 13.423 13.423 0 0 1-2.576-2.132c-.233-.246-.468-.487-.68-.75l-48.805-60.679q-.408-.514-.765-1.066a13.102 13.102 0 0 1-1.343-2.726 13.506 13.506 0 0 1-.491-1.719 13.315 13.315 0 0 1 .004-5.809l17.394-75.675a13.598 13.598 0 0 1 7.295-9.07l70.508-33.686a13.59 13.59 0 0 1 11.705 0l70.519 33.67a13.602 13.602 0 0 1 7.293 9.073l17.422 75.675a13.282 13.282 0 0 1 .002 5.807z" class="kubernetes-cls-1"/><path d="M252.144 120.687c-.36-.083-.874-.225-1.227-.29a35.635 35.635 0 0 0-4.046-.326 39.464 39.464 0 0 1-7.57-1.242 4.745 4.745 0 0 1-1.82-1.832l-1.704-.496a54.837 54.837 0 0 0-8.79-37.983c.436-.396 1.262-1.127 1.495-1.342a3.338 3.338 0 0 1 .792-2.39 39.495 39.495 0 0 1 6.277-4.41 35.097 35.097 0 0 0 3.507-2.046c.272-.202.644-.522.929-.75a4.242 4.242 0 1 0-5.256-6.6c-.288.227-.68.525-.936.747a35.007 35.007 0 0 0-2.789 2.95 39.532 39.532 0 0 1-5.69 5.148 4.69 4.69 0 0 1-2.56.278l-1.606 1.147a55.309 55.309 0 0 0-35.032-16.927c-.039-.561-.087-1.577-.102-1.884a3.344 3.344 0 0 1-1.377-2.11 39.534 39.534 0 0 1 .478-7.656 35.111 35.111 0 0 0 .575-4.012c.013-.34-.007-.834-.007-1.201a4.242 4.242 0 1 0-8.441.004c0 .04.009.078.01.118-.004.35-.021.774-.01 1.08a35.475 35.475 0 0 0 .576 4.015 39.475 39.475 0 0 1 .47 7.654 4.601 4.601 0 0 1-1.37 2.182l-.1 1.786a55.055 55.055 0 0 0-7.63 1.173 54.289 54.289 0 0 0-27.574 15.754q-.77-.531-1.526-1.082a3.333 3.333 0 0 1-2.506-.243 39.383 39.383 0 0 1-5.69-5.141 35.255 35.255 0 0 0-2.777-2.95c-.257-.22-.65-.52-.938-.749a5.03 5.03 0 0 0-2.942-1.11 4.066 4.066 0 0 0-3.363 1.489 4.473 4.473 0 0 0 1.038 6.222l.065.046c.276.226.616.515.872.702a35.257 35.257 0 0 0 3.499 2.048 39.367 39.367 0 0 1 6.276 4.412 4.69 4.69 0 0 1 .849 2.434l1.351 1.208a54.613 54.613 0 0 0-8.611 38.073l-1.767.514a5.835 5.835 0 0 1-1.814 1.827 39.39 39.39 0 0 1-7.565 1.247 35.264 35.264 0 0 0-4.049.326c-.324.06-.774.174-1.127.262l-.037.008-.06.018a4.236 4.236 0 1 0 1.875 8.224l.063-.01c.028-.006.052-.02.08-.025.348-.079.786-.163 1.092-.246a35.585 35.585 0 0 0 3.786-1.451 39.527 39.527 0 0 1 7.358-2.165 4.68 4.68 0 0 1 2.426.857l1.84-.315a54.922 54.922 0 0 0 24.34 30.387l-.769 1.84a4.188 4.188 0 0 1 .377 2.387 41.227 41.227 0 0 1-3.82 6.864 35.183 35.183 0 0 0-2.263 3.372c-.168.318-.381.805-.542 1.138a4.238 4.238 0 1 0 7.621 3.616l.007-.008v-.01c.16-.33.387-.763.522-1.072a34.9 34.9 0 0 0 1.218-3.868 29.517 29.517 0 0 1 3.268-7.582 3.43 3.43 0 0 1 1.819-.888l.957-1.73a54.617 54.617 0 0 0 38.946.099c.268.478.768 1.392.9 1.623a3.335 3.335 0 0 1 2.155 1.31 39.306 39.306 0 0 1 2.898 7.096 35.274 35.274 0 0 0 1.225 3.868c.137.312.36.751.522 1.082a4.24 4.24 0 1 0 7.63-3.607c-.161-.333-.383-.82-.55-1.136a35.062 35.062 0 0 0-2.263-3.364 39.373 39.373 0 0 1-3.742-6.7 3.314 3.314 0 0 1 .324-2.49 14.515 14.515 0 0 1-.703-1.703 54.92 54.92 0 0 0 24.328-30.605c.546.087 1.497.253 1.806.316a3.337 3.337 0 0 1 2.36-.877 39.477 39.477 0 0 1 7.36 2.165 35.135 35.135 0 0 0 3.788 1.462c.305.08.74.156 1.09.233.029.008.055.021.083.028l.06.009a4.236 4.236 0 1 0 1.878-8.224zm-40.1-42.987l-18.037 12.787-.063-.029a3.723 3.723 0 0 1-5.913-2.839l-.02-.009-1.253-22.104A43.85 43.85 0 0 1 212.043 77.7zm-33.978 24.228h6.788l4.22 5.276-1.513 6.581-6.096 2.933-6.114-2.94-1.516-6.583zM171.68 66.28a44.676 44.676 0 0 1 4.503-.774l-1.255 22.137-.092.044a3.72 3.72 0 0 1-5.904 2.852l-.035.02-18.154-12.872A43.467 43.467 0 0 1 171.68 66.28zm-27.52 19.681l16.574 14.823-.018.091a3.72 3.72 0 0 1-1.462 6.394l-.017.072-21.245 6.131a43.454 43.454 0 0 1 6.168-27.51zm22.191 39.38l-8.441 20.396a43.696 43.696 0 0 1-17.536-21.948l21.783-3.699.037.048a3.655 3.655 0 0 1 .73-.065 3.72 3.72 0 0 1 3.364 5.185zm24.916 26.23a43.637 43.637 0 0 1-23.815-1.224l10.713-19.372h.018a3.725 3.725 0 0 1 6.557-.006h.08l10.74 19.404q-2.091.698-4.293 1.199zm13.841-5.752l-8.528-20.605.026-.037a3.725 3.725 0 0 1 1.803-4.823 3.685 3.685 0 0 1 1.425-.37 3.59 3.59 0 0 1 .855.063l.037-.046 21.977 3.714a43.53 43.53 0 0 1-17.595 22.105zm19.903-32.419l-21.352-6.15-.02-.09a3.725 3.725 0 0 1-1.46-6.396l-.008-.043 16.482-14.751a44.279 44.279 0 0 1 6.357 27.43z" class="kubernetes-cls-1"/></svg><svg xmlns="http://www.w3.org/2000/svg" width="120" height="60" id="amazon_web_services-logo" transform="translate(82.13, -71.72) scale(1)"><path d="M15.864 42.616V33.77l6.036 2.057v8.956zm13.178 0V33.77l-6.036 2.057v8.956zm-6.45-11.228l5.664 1.826-5.664 1.923-6.1-2.03zm-13.915-1.13V21.4l6.036 2.056v8.956zm13.18-.001V21.4l-6.036 2.056v8.956zm-6.45-11.23l5.664 1.827-5.664 1.923-6.1-2.03zm7.355 11.23V21.4l6.036 2.056v8.956zm13.178 0V21.4l-6.036 2.056v8.956zm-6.44-11.23l5.664 1.827-5.664 1.923-6.1-2.03zm.458-1.13V9.05l6.036 2.057v8.955zm13.17-.001V9.05l-6.036 2.057v8.955zM36.677 6.67l5.664 1.826-5.664 1.923-6.1-2.03zm7.355 11.227V9.05l6.036 2.057v8.955zm13.168 0V9.05l-6.036 2.057v8.955zM50.76 6.67l5.664 1.826-5.664 1.923-6.1-2.03z" fill="#f90" fill-rule="evenodd"/><path d="M46.998 39.018l-2.028 7.044h-.88l-1.6-5.232-1.448 5.232h-.898l-2.107-7.044h1.1l1.535 5.25 1.46-5.25h.804l1.588 5.266 1.578-5.266h.885zm5.608 4.942l1.02.2a2.87 2.87 0 0 1-1.086 1.495c-.54.395-1.172.592-1.9.592-.96 0-1.738-.338-2.332-1.016s-.9-1.565-.9-2.663c0-1.122.3-2.028.926-2.72a2.98 2.98 0 0 1 2.325-1.037c.92 0 1.658.318 2.218.955s.846 1.588.86 2.856h-5.113c0 1.065.222 1.784.668 2.156s.916.558 1.412.558c.895 0 1.526-.462 1.892-1.387zm-.06-2.144c-.01-.395-.074-.746-.195-1.053s-.325-.568-.613-.784-.633-.324-1.037-.324a1.85 1.85 0 0 0-1.381.586c-.378.4-.6.915-.637 1.575h3.862zm3.17 4.246h-.527v-9.5h1.097v3.64c.5-.913 1.2-1.37 2.073-1.37.806 0 1.482.32 2.027.957s.817 1.564.817 2.778c0 1.047-.27 1.925-.804 2.635s-1.234 1.065-2.092 1.065c-.956 0-1.7-.454-2.2-1.36l-.4 1.165zm.57-2.76c.05.723.273 1.248.665 1.574s.807.5 1.244.5c.557 0 1.006-.242 1.348-.726s.512-1.147.512-1.988c0-.907-.165-1.62-.494-2.14s-.787-.778-1.372-.778c-.46 0-.874.185-1.244.554s-.6.847-.658 1.432v1.57zm7.713.934l1.046-.216c.232.885.968 1.327 2.204 1.327.455 0 .842-.102 1.158-.306a.97.97 0 0 0 .475-.863c0-.55-.403-.9-1.208-1.05l-1.483-.282c-.58-.112-1.043-.33-1.387-.656s-.515-.755-.515-1.3c0-.6.234-1.084.704-1.482s1.1-.596 1.895-.596c1.528 0 2.47.597 2.83 1.792l-1.004.216c-.288-.73-.88-1.097-1.775-1.097-.446 0-.812.1-1.097.274a.86.86 0 0 0-.428.766c0 .518.365.843 1.094.978l1.37.252c1.436.26 2.153.957 2.153 2.088a1.86 1.86 0 0 1-.802 1.568c-.534.398-1.245.598-2.134.598-1.67 0-2.7-.674-3.096-2.02zm11.866-.276l1.02.2c-.185.602-.547 1.1-1.086 1.495s-1.172.592-1.9.592c-.96 0-1.738-.338-2.332-1.016s-.9-1.565-.9-2.663c0-1.122.308-2.028.926-2.72a2.98 2.98 0 0 1 2.325-1.037c.918 0 1.658.318 2.217.955s.846 1.588.86 2.856h-5.112c0 1.065.222 1.784.667 2.156s.916.558 1.413.558c.895 0 1.526-.462 1.892-1.387zm-.06-2.144c-.01-.395-.075-.746-.195-1.053s-.324-.568-.612-.784-.633-.324-1.037-.324a1.85 1.85 0 0 0-1.382.586c-.378.4-.6.915-.636 1.575h3.862zm3.477 4.246h-1.097v-7.044h.96v1.642c.34-.77.68-1.268 1.02-1.495s.7-.342 1.048-.342a4.69 4.69 0 0 1 .432.026v1.046h-.222c-.603 0-1.104.224-1.503.672s-.612 1.037-.64 1.766v3.73zm9.18-7.044l-2.432 7.044h-1.137l-2.513-7.044h1.214l1.955 5.725 1.94-5.725h.973zm2.05-2.468v1.217H89.34V36.55h1.174zm-.026 2.467v7.044H89.4v-7.044h1.097zm5.734 4.578l.987.174c-.14.778-.448 1.387-.926 1.828s-1.075.66-1.8.66c-.97 0-1.7-.36-2.22-1.075s-.763-1.6-.763-2.625c0-1.07.268-1.96.805-2.67s1.267-1.065 2.2-1.065c.766 0 1.38.23 1.843.7s.75 1.05.86 1.778l-.987.188c-.186-1.163-.747-1.744-1.685-1.744a1.55 1.55 0 0 0-1.392.77c-.325.513-.488 1.178-.488 1.996 0 .9.16 1.6.484 2.1a1.53 1.53 0 0 0 1.361.749c.905 0 1.478-.584 1.72-1.753zm7.176.365l1.02.2a2.87 2.87 0 0 1-1.086 1.495c-.54.395-1.172.592-1.9.592-.96 0-1.74-.338-2.333-1.016s-.9-1.565-.9-2.663c0-1.122.3-2.028.926-2.72a2.98 2.98 0 0 1 2.325-1.037c.92 0 1.66.318 2.218.955s.846 1.588.86 2.856h-5.112c0 1.065.222 1.784.668 2.156s.916.558 1.412.558c.895 0 1.526-.462 1.892-1.387zm-.06-2.144c-.01-.395-.074-.746-.195-1.053a1.79 1.79 0 0 0-.612-.784c-.288-.216-.633-.324-1.037-.324a1.84 1.84 0 0 0-1.38.586c-.376.4-.6.915-.637 1.575h3.862zm1.82 2.42l1.046-.216c.232.885.967 1.327 2.204 1.327.455 0 .84-.102 1.158-.306a.97.97 0 0 0 .474-.863c0-.55-.403-.9-1.207-1.05l-1.483-.282c-.58-.112-1.043-.33-1.387-.656s-.515-.755-.515-1.3c0-.6.234-1.084.704-1.482s1.1-.596 1.895-.596c1.528 0 2.47.597 2.83 1.792l-1.004.216c-.288-.73-.88-1.097-1.775-1.097-.446 0-.8.1-1.097.274a.86.86 0 0 0-.428.766c0 .518.365.843 1.094.978l1.37.252c1.436.26 2.153.957 2.153 2.088a1.86 1.86 0 0 1-.802 1.568c-.534.398-1.245.598-2.134.598-1.668 0-2.7-.674-3.095-2.02z" stroke="#000" stroke-width=".213"/><path d="M80.42 23.964v-1.692a.42.42 0 0 1 .43-.43h7.583c.242 0 .437.176.438.427v1.45c-.002.243-.207.56-.57 1.065l-3.927 5.608c1.458-.034 3 .184 4.325.93.3.168.378.416.402.66v1.805c0 .25-.272.537-.558.387-2.334-1.223-5.43-1.357-8.012.014-.264.14-.54-.143-.54-.392V32.08c0-.275.005-.744.282-1.163l4.55-6.53H80.86a.42.42 0 0 1-.439-.425zM53.283 34.532h-2.307c-.22-.014-.395-.18-.412-.4l.001-11.84c0-.237.2-.426.445-.426l2.148-.001c.225.012.405.182.42.398v1.546h.043c.56-1.495 1.615-2.193 3.036-2.193 1.443 0 2.347.698 2.994 2.193.56-1.495 1.83-2.193 3.187-2.193.97 0 2.024.4 2.67 1.296.732.996.582 2.442.582 3.713l-.002 7.472c0 .237-.2.426-.445.426H63.34c-.23-.015-.414-.198-.414-.425V27.83c0-.5.043-1.744-.065-2.218-.172-.797-.7-1.022-1.356-1.022-.56 0-1.142.374-1.38.972s-.215 1.595-.215 2.268v6.276c0 .237-.2.426-.445.426H57.16c-.232-.015-.414-.198-.414-.425l-.002-6.277c0-1.32.215-3.264-1.42-3.264-1.658 0-1.594 1.893-1.594 3.264v6.276c0 .237-.2.426-.445.426zm41.16-12.907c3.397 0 5.234 2.94 5.234 6.678 0 3.613-2.03 6.478-5.234 6.478-3.333 0-5.15-2.94-5.15-6.603 0-3.687 1.838-6.553 5.15-6.553zm.022 2.722c-1.688 0-1.795 2.317-1.795 3.762s-.02 4.23 1.774 4.23c1.774 0 1.86-2.187 1.86-3.707 0-.996-.042-2.193-.34-3.14-.257-.822-.77-1.146-1.496-1.146zm10.128 10.185h-2.298c-.23-.015-.414-.198-.414-.425l-.004-11.845c.02-.217.2-.386.443-.386l2.14-.001a.44.44 0 0 1 .41.332v1.8h.044c.646-1.62 1.55-2.392 3.144-2.392 1.033 0 2.046.374 2.692 1.395.603.947.603 2.54.603 3.688v7.45c-.026.2-.214.373-.442.373h-2.313c-.213-.014-.385-.17-.4-.373v-6.43c0-1.295.15-3.2-1.443-3.2-.56 0-1.077.374-1.335.947-.323.723-.367 1.445-.367 2.243v6.376c-.004.237-.203.426-.45.426zm-29.955-5.655c0 .9.022 1.648-.432 2.447-.367.65-.95 1.05-1.597 1.05-.885 0-1.403-.674-1.403-1.673 0-1.964 1.763-2.322 3.43-2.322v.5zm2.326 5.625c-.153.137-.373.146-.545.054-.766-.637-.903-.93-1.322-1.538-1.266 1.3-2.163 1.677-3.803 1.677-1.942 0-3.453-1.2-3.453-3.596 0-1.873 1.014-3.146 2.46-3.77 1.252-.55 3-.65 4.338-.8v-.3c0-.55.043-1.198-.28-1.673-.28-.425-.82-.6-1.295-.6-.88 0-1.662.45-1.855 1.386-.04.208-.192.413-.4.424l-2.236-.242c-.2-.043-.4-.194-.344-.482.514-2.713 2.964-3.532 5.16-3.532 1.122 0 2.6.3 3.474 1.15 1.123 1.05 1.014 2.447 1.014 3.97v3.594c0 1.08.45 1.555.87 2.138.147.2.18.46-.008.613l-1.77 1.532-.006-.006zm-32.307-5.625c0 .9.022 1.648-.432 2.447-.367.65-.95 1.05-1.597 1.05-.885 0-1.403-.674-1.403-1.673 0-1.964 1.762-2.322 3.43-2.322v.5zm2.326 5.625c-.153.137-.373.146-.545.054-.766-.637-.904-.93-1.322-1.538-1.266 1.3-2.163 1.677-3.803 1.677-1.942 0-3.453-1.2-3.453-3.596 0-1.873 1.014-3.146 2.46-3.77 1.252-.55 3-.65 4.338-.8v-.3c0-.55.043-1.198-.28-1.673-.28-.425-.82-.6-1.295-.6-.88 0-1.662.45-1.855 1.386-.04.208-.2.413-.4.424l-2.236-.242c-.2-.043-.4-.194-.344-.482.513-2.713 2.963-3.532 5.16-3.532 1.122 0 2.6.3 3.475 1.15 1.122 1.05 1.014 2.447 1.014 3.97v3.594c0 1.08.45 1.555.87 2.138.147.2.18.46-.007.613L47 34.507l-.006-.006z" fill-rule="evenodd"/></svg><svg xmlns="http://www.w3.org/2000/svg" width="120" height="60" id="rancher-logo" transform="translate(126.71000000000001, -451.19) scale(1)"><path d="M83.777 13.367l-.524-3.094c-.167-1-.547-1.8-.857-1.8s-.57.833-.57 1.833v.8a1.85 1.85 0 0 1-1.833 1.833h-.976v2.237h3.213c1.023 0 1.714-.8 1.547-1.8M76.47 10.75H66.33c-.07 0-.12 0-.167.024v-.476c0-1-.262-1.833-.57-1.833s-.7.8-.857 1.8l-.524 3.094c-.167 1 .524 1.8 1.523 1.8h3.07c.3 0 .62-.048.857-.143a1.1 1.1 0 0 1-1.095.904h-4.284c-.7 0-1.214-.62-1.095-1.3l.428-2.594a1.11 1.11 0 0 0-1.095-1.31H41.27c-.452 0-.833.262-1.023.666L36.25 17.51c-.07.095-.07.238.024.333l.785.928c.095.12.262.143.38.048l2.713-2.142v13.042a1.12 1.12 0 0 0 1.12 1.12h6.045a1.12 1.12 0 0 0 1.12-1.12v-4.522a1.12 1.12 0 0 1 1.12-1.12H64.62a1.12 1.12 0 0 1 1.12 1.12v4.522a1.12 1.12 0 0 0 1.12 1.12h6.04a1.12 1.12 0 0 0 1.12-1.12V24.8h-3.213a1.85 1.85 0 0 1-1.833-1.833V19.84a1.79 1.79 0 0 1 .738-1.452v3.737a1.85 1.85 0 0 0 1.833 1.833h4.95a1.85 1.85 0 0 0 1.833-1.833v-9.52c-.024-1.023-.857-1.856-1.856-1.856" fill="#0076a8"/><g fill="#59595b"><path d="M15.308 35.992h6.306c3 0 5.005 1.455 5.005 4.255 0 2.293-1.565 3.66-3.087 4.145.463.375.794.904 1.058 1.455.64 1.3 1.058 2.712 2.403 2.712.33 0 .617-.1.617-.1l-.287 2.712s-.816.198-1.52.198c-1.808 0-2.844-.706-3.925-3.13-.463-1.08-1.08-3-1.918-3h-.86v6.04h-3.792zm3.792 2.756v3.748h1.367c1.08 0 2.36-.33 2.36-1.962 0-1.345-.86-1.786-1.896-1.786z"/><path d="M31.734 35.992h3.836l5.16 15.28h-3.836l-.948-2.888H30.83l-.926 2.888h-3.307zm0 9.6h3.285l-1.036-3.22c-.353-1.08-.53-2.624-.53-2.624h-.088s-.22 1.565-.573 2.602zm9.15-9.6h4.057l4.013 7.585c.33.66.794 1.808 1.147 2.712h.088l-.154-2.977v-7.32h3.1v15.28h-3.97l-4.167-7.563c-.375-.684-.794-1.676-1.102-2.5h-.088l.176 2.712v7.342h-3.1zm13.053 7.562c0-5.534 2.734-7.805 6.967-7.805 4.454 0 6.24 2.447 5.755 5.755l-3.528.3c.375-2.425-.573-3.395-2.293-3.395-1.654 0-3 1.213-3 5.16 0 4.167 1.455 5.225 3.1 5.225 1.565 0 2.822-.97 2.558-2.977l3.307.33c.243 3.1-1.984 5.38-6.063 5.38-4.123.022-6.813-2.425-6.813-7.982M79.8 35.992v15.302h-3.77V44.8h-4.652v6.482h-3.77v-15.3h3.77v5.777h4.652v-5.777zM90.427 42.1v2.8H85.1v3.572h6.57v2.822H81.32V35.992h10.12v2.822H85.1V42.1zm1.963-6.108h6.306c3 0 5.005 1.455 5.005 4.255 0 2.293-1.565 3.66-3.087 4.145.463.375.794.904 1.058 1.455.64 1.3 1.058 2.712 2.403 2.712.33 0 .617-.1.617-.1l-.3 2.712s-.816.198-1.52.198c-1.808 0-2.844-.706-3.925-3.13-.463-1.08-1.08-3-1.918-3h-.86v6.04h-3.792V36zm3.792 2.756v3.748h1.367c1.08 0 2.36-.33 2.36-1.962 0-1.345-.86-1.786-1.896-1.786z"/></g></svg></g>
</svg>