<?xml version="1.0" encoding="UTF-8" standalone="no"?>
<!DOCTYPE svg PUBLIC "-//W3C//DTD SVG 1.1//EN"
 "http://www.w3.org/Graphics/SVG/1.1/DTD/svg11.dtd">
<!-- Generated by graphviz version 9.0.0 (0)
 -->
<!-- Pages: 1 -->
<svg width="309pt" height="536pt"
 viewBox="0.00 0.00 309.16 535.90" xmlns="http://www.w3.org/2000/svg" xmlns:xlink="http://www.w3.org/1999/xlink">
<g id="minimal.example" class="graph" transform="scale(1 1) rotate(0) translate(36 499.9)">
<polygon fill="white" stroke="none" points="-36,36 -36,-499.9 273.16,-499.9 273.16,36 -36,36"/>
<g id="cluster_cloud_integration" class="cluster">
<title>cluster_cloud_integration</title>
</g>
<g id="cluster_cluster_management" class="cluster">
<title>cluster_cluster_management</title>
</g>
<!-- Kubernetes -->
<g id="Kubernetes" class="node">
<title>Kubernetes</title>
<ellipse fill="none" stroke="black" cx="113.86" cy="-235.35" rx="63.85" ry="32.03"/>
<text text-anchor="middle" x="113.86" y="-230.3" font-family="Times,serif" font-size="14.00">Kubernetes</text>
</g>
<!-- label_cloud_integration -->
<g id="label_cloud_integration" class="node">
<title>label_cloud_integration</title>
<path fill="none" stroke="darkgreen" d="M137.53,-160.12C137.53,-160.12 97.63,-160.12 97.63,-160.12 91.63,-160.12 85.63,-154.12 85.63,-148.12 85.63,-148.12 85.63,-129.22 85.63,-129.22 85.63,-123.22 91.63,-117.22 97.63,-117.22 97.63,-117.22 137.53,-117.22 137.53,-117.22 143.53,-117.22 149.53,-123.22 149.53,-129.22 149.53,-129.22 149.53,-148.12 149.53,-148.12 149.53,-154.12 143.53,-160.12 137.53,-160.12"/>
<text text-anchor="middle" x="117.58" y="-143.42" font-family="Avenir Next, Helvetica" font-size="10.00" fill="#333333">Cloud</text>
<text text-anchor="middle" x="117.58" y="-129.17" font-family="Avenir Next, Helvetica" font-size="10.00" fill="#333333">Integration</text>
</g>
<!-- Kubernetes&#45;&gt;label_cloud_integration -->
<g id="Kubernetes&#45;label_cloud_integration&#45;edge" class="edge">
<title>Kubernetes&#45;&gt;label_cloud_integration</title>
<path fill="none" stroke="darkgreen" d="M115.11,-202.89C115.64,-188.95 116.26,-173.04 116.74,-160.54"/>
<polygon fill="darkgreen" stroke="darkgreen" points="116.74,-160.54 116.74,-160.54 116.74,-160.54 116.74,-160.54"/>
</g>
<!-- label_cluster_management -->
<g id="label_cluster_management" class="node">
<title>label_cluster_management</title>
<path fill="none" stroke="darkblue" d="M155.54,-352.35C155.54,-352.35 103.64,-352.35 103.64,-352.35 97.64,-352.35 91.64,-346.35 91.64,-340.35 91.64,-340.35 91.64,-321.45 91.64,-321.45 91.64,-315.45 97.64,-309.45 103.64,-309.45 103.64,-309.45 155.54,-309.45 155.54,-309.45 161.54,-309.45 167.54,-315.45 167.54,-321.45 167.54,-321.45 167.54,-340.35 167.54,-340.35 167.54,-346.35 161.54,-352.35 155.54,-352.35"/>
<text text-anchor="middle" x="129.59" y="-335.65" font-family="Avenir Next, Helvetica" font-size="10.00" fill="#333333">Cluster</text>
<text text-anchor="middle" x="129.59" y="-321.4" font-family="Avenir Next, Helvetica" font-size="10.00" fill="#333333">Management</text>
</g>
<!-- Kubernetes&#45;&gt;label_cluster_management -->
<g id="Kubernetes&#45;label_cluster_management&#45;edge" class="edge">
<title>Kubernetes&#45;&gt;label_cluster_management</title>
<path fill="none" stroke="darkblue" d="M119.18,-267.7C121.43,-281.34 123.98,-296.86 126,-309.11"/>
<polygon fill="darkblue" stroke="darkblue" points="126,-309.11 126,-309.11 126,-309.11 126,-309.11"/>
</g>
<!-- Amazon Web Services -->
<g id="Amazon Web Services" class="node">
<title>Amazon Web Services</title>
<ellipse fill="none" stroke="darkgreen" cx="118.58" cy="-42.21" rx="118.58" ry="42.21"/>
<text text-anchor="middle" x="118.58" y="-37.16" font-family="Times,serif" font-size="14.00">Amazon Web Services</text>
</g>
<!-- label_cloud_integration&#45;&gt;Amazon Web Services -->
<g id="label_cloud_integration&#45;Amazon Web Services&#45;edge" class="edge">
<title>label_cloud_integration&#45;&gt;Amazon Web Services</title>
<path fill="none" stroke="darkgreen" d="M117.81,-116.79C117.87,-110.44 117.95,-103.21 118.03,-95.81"/>
<polygon fill="darkgreen" stroke="darkgreen" points="121.52,-96.09 118.13,-86.06 114.52,-96.02 121.52,-96.09"/>
</g>
<!-- Rancher -->
<g id="Rancher" class="node">
<title>Rancher</title>
<ellipse fill="none" stroke="darkblue" cx="163.16" cy="-421.68" rx="62.37" ry="42.21"/>
<text text-anchor="middle" x="163.16" y="-416.63" font-family="Times,serif" font-size="14.00">Rancher</text>
</g>
<!-- label_cluster_management&#45;&gt;Rancher -->
<g id="label_cluster_management&#45;Rancher&#45;edge" class="edge">
<title>label_cluster_management&#45;&gt;Rancher</title>
<path fill="none" stroke="darkblue" d="M137.55,-352.41C139.53,-357.79 141.75,-363.79 144.03,-369.94"/>
<polygon fill="darkblue" stroke="darkblue" points="140.61,-370.79 147.36,-378.96 147.18,-368.36 140.61,-370.79"/>
</g>
</g>
</svg>
