<?xml version="1.0" encoding="UTF-8" standalone="no"?>
<!DOCTYPE svg PUBLIC "-//W3C//DTD SVG 1.1//EN"
 "http://www.w3.org/Graphics/SVG/1.1/DTD/svg11.dtd">
<!-- Generated by graphviz version 2.43.0 (0)
 -->
<!-- Title: %3 Pages: 1 -->
<svg width="356pt" height="535pt"
 viewBox="0.00 0.00 356.26 534.91" xmlns="http://www.w3.org/2000/svg" xmlns:xlink="http://www.w3.org/1999/xlink">
<g id="minimal.example" class="graph" transform="scale(1 1) rotate(0) translate(36 498.91)">
<title>%3</title>
<polygon fill="white" stroke="transparent" points="-36,36 -36,-498.91 320.26,-498.91 320.26,36 -36,36"/>
<g id="cluster_cloud_integration" class="cluster">
<title>cluster_cloud_integration</title>
</g>
<g id="cluster_cluster_management" class="cluster">
<title>cluster_cluster_management</title>
</g>
<!-- Kubernetes -->
<g id="Kubernetes" class="node">
<title>Kubernetes</title>
<ellipse fill="none" stroke="black" cx="137.4" cy="-234.85" rx="78.48" ry="30.31"/>
<text text-anchor="middle" x="137.4" y="-231.15" font-family="Times,serif" font-size="14.00">Kubernetes</text>
</g>
<!-- label_cloud_integration -->
<g id="label_cloud_integration" class="node">
<title>label_cloud_integration</title>
<path fill="none" stroke="darkgreen" d="M166.13,-163.18C166.13,-163.18 116.13,-163.18 116.13,-163.18 110.13,-163.18 104.13,-157.18 104.13,-151.18 104.13,-151.18 104.13,-125.18 104.13,-125.18 104.13,-119.18 110.13,-113.18 116.13,-113.18 116.13,-113.18 166.13,-113.18 166.13,-113.18 172.13,-113.18 178.13,-119.18 178.13,-125.18 178.13,-125.18 178.13,-151.18 178.13,-151.18 178.13,-157.18 172.13,-163.18 166.13,-163.18"/>
<text text-anchor="middle" x="141.13" y="-141.18" font-family="Avenir Next, Helvetica" font-size="10.00" fill="#333333">Cloud</text>
<text text-anchor="middle" x="141.13" y="-130.18" font-family="Avenir Next, Helvetica" font-size="10.00" fill="#333333">Integration</text>
</g>
<!-- Kubernetes&#45;&gt;label_cloud_integration -->
<g id="Kubernetes&#45;label_cloud_integration&#45;edge" class="edge">
<title>Kubernetes&#45;&gt;label_cloud_integration</title>
<path fill="none" stroke="darkgreen" d="M138.58,-204.26C139.08,-191.2 139.66,-176.13 140.14,-163.68"/>
<polygon fill="darkgreen" stroke="darkgreen" points="140.16,-163.39 140.16,-163.39 140.16,-163.39 140.16,-163.39"/>
</g>
<!-- label_cluster_management -->
<g id="label_cluster_management" class="node">
<title>label_cluster_management</title>
<path fill="none" stroke="darkblue" d="M183.63,-355.4C183.63,-355.4 122.63,-355.4 122.63,-355.4 116.63,-355.4 110.63,-349.4 110.63,-343.4 110.63,-343.4 110.63,-317.4 110.63,-317.4 110.63,-311.4 116.63,-305.4 122.63,-305.4 122.63,-305.4 183.63,-305.4 183.63,-305.4 189.63,-305.4 195.63,-311.4 195.63,-317.4 195.63,-317.4 195.63,-343.4 195.63,-343.4 195.63,-349.4 189.63,-355.4 183.63,-355.4"/>
<text text-anchor="middle" x="153.13" y="-333.4" font-family="Avenir Next, Helvetica" font-size="10.00" fill="#333333">Cluster</text>
<text text-anchor="middle" x="153.13" y="-322.4" font-family="Avenir Next, Helvetica" font-size="10.00" fill="#333333">Management</text>
</g>
<!-- Kubernetes&#45;&gt;label_cluster_management -->
<g id="Kubernetes&#45;label_cluster_management&#45;edge" class="edge">
<title>Kubernetes&#45;&gt;label_cluster_management</title>
<path fill="none" stroke="darkblue" d="M142.42,-265.35C144.53,-278.14 146.95,-292.83 148.96,-305.02"/>
<polygon fill="darkblue" stroke="darkblue" points="149,-305.31 149,-305.31 149,-305.31 149,-305.31"/>
</g>
<!-- Amazon Web Services -->
<g id="Amazon Web Services" class="node">
<title>Amazon Web Services</title>
<ellipse fill="none" stroke="darkgreen" cx="142.13" cy="-41.72" rx="142.26" ry="41.94"/>
<text text-anchor="middle" x="142.13" y="-38.02" font-family="Times,serif" font-size="14.00">Amazon Web Services</text>
</g>
<!-- label_cloud_integration&#45;&gt;Amazon Web Services -->
<g id="label_cloud_integration&#45;Amazon Web Services&#45;edge" class="edge">
<title>label_cloud_integration&#45;&gt;Amazon Web Services</title>
<path fill="none" stroke="darkgreen" d="M141.39,-113.09C141.45,-107.15 141.52,-100.61 141.59,-93.96"/>
<polygon fill="darkgreen" stroke="darkgreen" points="145.09,-93.53 141.69,-83.5 138.09,-93.46 145.09,-93.53"/>
</g>
<!-- Rancher -->
<g id="Rancher" class="node">
<title>Rancher</title>
<ellipse fill="none" stroke="darkblue" cx="186.71" cy="-421.19" rx="73.58" ry="41.94"/>
<text text-anchor="middle" x="186.71" y="-417.49" font-family="Times,serif" font-size="14.00">Rancher</text>
</g>
<!-- label_cluster_management&#45;&gt;Rancher -->
<g id="label_cluster_management&#45;Rancher&#45;edge" class="edge">
<title>label_cluster_management&#45;&gt;Rancher</title>
<path fill="none" stroke="darkblue" d="M162.49,-355.69C164.19,-360.3 166.02,-365.24 167.89,-370.29"/>
<polygon fill="darkblue" stroke="darkblue" points="164.74,-371.86 171.49,-380.03 171.3,-369.44 164.74,-371.86"/>
</g>
</g>
</svg>
